<svg width="52" height="52" viewBox="0 0 52 52" fill="none" xmlns="http://www.w3.org/2000/svg">
<g clip-path="url(#clip0_4081_1838)">
<g opacity="0.3" filter="url(#filter0_f_4081_1838)">
<path d="M28.5469 13.1499C28.8326 13.1133 29.3758 13.113 29.8027 13.5269L29.8867 13.6157L30.0947 13.8765C30.1581 13.9616 30.2155 14.0425 30.2646 14.1128C30.3734 14.2681 30.4482 14.3756 30.5254 14.4692V14.4702L30.7676 14.7505C31.336 15.3816 31.9463 15.8547 32.7725 16.3618L33.4609 16.7729C34.1584 17.18 34.8829 17.5784 35.6279 17.9995C36.6067 18.5528 37.6062 19.1382 38.5264 19.7915L38.9355 20.0933C39.8628 20.8032 40.593 21.5571 41.166 22.4204C41.8201 23.4059 42.2401 24.4888 42.5381 25.728L42.6602 26.2778C43.2235 29.0364 43.1013 31.9347 43.1562 34.4995L43.2197 37.7085L43.2275 38.0532C43.2292 38.1927 43.2275 38.3469 43.2168 38.4829C43.2172 38.4776 43.218 38.4738 43.2178 38.478C43.2176 38.4804 43.2167 38.4922 43.2158 38.5044C43.2141 38.5286 43.2103 38.5814 43.1982 38.645C43.1729 38.7782 43.104 39.0039 42.9053 39.2056L42.9043 39.2065C42.8128 39.299 42.7214 39.3579 42.6602 39.3921C42.5962 39.4278 42.5373 39.4521 42.4941 39.4683C42.4102 39.4997 42.3335 39.5174 42.2861 39.5278C42.2351 39.539 42.1888 39.5473 42.1592 39.5522C42.1454 39.5545 42.1293 39.5569 42.1221 39.5581C42.1126 39.5596 42.1102 39.5603 42.1113 39.5601H42.1104C41.495 39.6717 40.8786 39.6843 40.3145 39.6724L39.7695 39.6558C38.0138 39.5878 36.4532 39.2763 34.9385 38.3228L34.6367 38.1235C32.7936 36.8531 31.9789 35.1366 31.6201 33.3735C31.3612 32.1009 31.3319 30.7376 31.3174 29.5034L31.2998 28.3198C31.2606 26.7745 31.1511 25.0393 31.1328 23.4263L31.1299 23.3755C31.1279 23.3505 31.1221 23.2896 31.1191 23.2339C31.1125 23.1092 31.1104 22.9188 31.165 22.6987C31.2437 22.3817 31.4381 22.1789 31.5371 22.0874C31.6532 21.9802 31.7761 21.9007 31.874 21.8452C31.9135 21.8229 31.9553 21.8016 31.998 21.7808C31.8647 21.7175 31.7297 21.6498 31.5938 21.5776L31.1875 21.3472C30.4391 20.8915 29.4436 20.2865 28.5557 19.5864C27.7449 18.9472 26.9038 18.1389 26.46 17.1831L26.377 16.9897C25.863 15.7005 26.2583 14.1091 27.752 13.396V13.395L27.9043 13.3276C28.0759 13.2565 28.3014 13.1814 28.5469 13.1499Z" stroke="#FFCB63" stroke-width="2"/>
<path d="M23.2275 13.1499C22.9418 13.1133 22.3986 13.113 21.9717 13.5269L21.8877 13.6157L21.6797 13.8765C21.6163 13.9616 21.5589 14.0425 21.5098 14.1128C21.4011 14.2681 21.3262 14.3756 21.249 14.4692V14.4702L21.0068 14.7505C20.4384 15.3816 19.8281 15.8547 19.002 16.3618L18.3135 16.7729C17.616 17.18 16.8915 17.5784 16.1465 17.9995C15.1677 18.5528 14.1683 19.1382 13.248 19.7915L12.8389 20.0933C11.9116 20.8032 11.1814 21.5571 10.6084 22.4204C9.95431 23.4059 9.53434 24.4888 9.23633 25.728L9.11426 26.2778C8.55095 29.0364 8.6731 31.9347 8.61816 34.4995L8.55469 37.7085L8.54688 38.0532C8.5452 38.1927 8.54691 38.3469 8.55762 38.4829C8.55722 38.4776 8.55639 38.4738 8.55664 38.478C8.55678 38.4804 8.55771 38.4922 8.55859 38.5044C8.56034 38.5286 8.56408 38.5814 8.57617 38.645C8.60153 38.7782 8.67043 39.0039 8.86914 39.2056L8.87012 39.2065C8.96163 39.299 9.05301 39.3579 9.11426 39.3921C9.17826 39.4278 9.23712 39.4521 9.28027 39.4683C9.3642 39.4997 9.44087 39.5174 9.48828 39.5278C9.53927 39.539 9.58561 39.5473 9.61523 39.5522C9.629 39.5545 9.64513 39.5569 9.65234 39.5581C9.66182 39.5596 9.66419 39.5603 9.66309 39.5601H9.66406C10.2794 39.6717 10.8958 39.6843 11.46 39.6724L12.0049 39.6558C13.7606 39.5878 15.3212 39.2763 16.8359 38.3228L17.1377 38.1235C18.9808 36.8531 19.7955 35.1366 20.1543 33.3735C20.4133 32.1009 20.4425 30.7376 20.457 29.5034L20.4746 28.3198C20.5138 26.7745 20.6233 25.0393 20.6416 23.4263L20.6445 23.3755C20.6465 23.3505 20.6523 23.2896 20.6553 23.2339C20.6619 23.1092 20.664 22.9188 20.6094 22.6987C20.5307 22.3817 20.3363 22.1789 20.2373 22.0874C20.1213 21.9802 19.9983 21.9007 19.9004 21.8452C19.8609 21.8229 19.8191 21.8016 19.7764 21.7808C19.9097 21.7175 20.0447 21.6498 20.1807 21.5776L20.5869 21.3472C21.3353 20.8915 22.3308 20.2865 23.2188 19.5864C24.0295 18.9472 24.8706 18.1389 25.3145 17.1831L25.3975 16.9897C25.9114 15.7005 25.5161 14.1091 24.0225 13.396V13.395L23.8701 13.3276C23.6985 13.2565 23.473 13.1814 23.2275 13.1499Z" stroke="#FFCB63" stroke-width="2"/>
</g>
<g opacity="0.1" filter="url(#filter1_f_4081_1838)">
<path d="M28.5469 13.1499C28.8326 13.1133 29.3758 13.113 29.8027 13.5269L29.8867 13.6157L30.0947 13.8765C30.1581 13.9616 30.2155 14.0425 30.2646 14.1128C30.3734 14.2681 30.4482 14.3756 30.5254 14.4692V14.4702L30.7676 14.7505C31.336 15.3816 31.9463 15.8547 32.7725 16.3618L33.4609 16.7729C34.1584 17.18 34.8829 17.5784 35.6279 17.9995C36.6067 18.5528 37.6062 19.1382 38.5264 19.7915L38.9355 20.0933C39.8628 20.8032 40.593 21.5571 41.166 22.4204C41.8201 23.4059 42.2401 24.4888 42.5381 25.728L42.6602 26.2778C43.2235 29.0364 43.1013 31.9347 43.1562 34.4995L43.2197 37.7085L43.2275 38.0532C43.2292 38.1927 43.2275 38.3469 43.2168 38.4829C43.2172 38.4776 43.218 38.4738 43.2178 38.478C43.2176 38.4804 43.2167 38.4922 43.2158 38.5044C43.2141 38.5286 43.2103 38.5814 43.1982 38.645C43.1729 38.7782 43.104 39.0039 42.9053 39.2056L42.9043 39.2065C42.8128 39.299 42.7214 39.3579 42.6602 39.3921C42.5962 39.4278 42.5373 39.4521 42.4941 39.4683C42.4102 39.4997 42.3335 39.5174 42.2861 39.5278C42.2351 39.539 42.1888 39.5473 42.1592 39.5522C42.1454 39.5545 42.1293 39.5569 42.1221 39.5581C42.1126 39.5596 42.1102 39.5603 42.1113 39.5601H42.1104C41.495 39.6717 40.8786 39.6843 40.3145 39.6724L39.7695 39.6558C38.0138 39.5878 36.4532 39.2763 34.9385 38.3228L34.6367 38.1235C32.7936 36.8531 31.9789 35.1366 31.6201 33.3735C31.3612 32.1009 31.3319 30.7376 31.3174 29.5034L31.2998 28.3198C31.2606 26.7745 31.1511 25.0393 31.1328 23.4263L31.1299 23.3755C31.1279 23.3505 31.1221 23.2896 31.1191 23.2339C31.1125 23.1092 31.1104 22.9188 31.165 22.6987C31.2437 22.3817 31.4381 22.1789 31.5371 22.0874C31.6532 21.9802 31.7761 21.9007 31.874 21.8452C31.9135 21.8229 31.9553 21.8016 31.998 21.7808C31.8647 21.7175 31.7297 21.6498 31.5938 21.5776L31.1875 21.3472C30.4391 20.8915 29.4436 20.2865 28.5557 19.5864C27.7449 18.9472 26.9038 18.1389 26.46 17.1831L26.377 16.9897C25.863 15.7005 26.2583 14.1091 27.752 13.396V13.395L27.9043 13.3276C28.0759 13.2565 28.3014 13.1814 28.5469 13.1499Z" stroke="#FFF0C9" stroke-width="2"/>
<path d="M23.2275 13.1499C22.9418 13.1133 22.3986 13.113 21.9717 13.5269L21.8877 13.6157L21.6797 13.8765C21.6163 13.9616 21.5589 14.0425 21.5098 14.1128C21.4011 14.2681 21.3262 14.3756 21.249 14.4692V14.4702L21.0068 14.7505C20.4384 15.3816 19.8281 15.8547 19.002 16.3618L18.3135 16.7729C17.616 17.18 16.8915 17.5784 16.1465 17.9995C15.1677 18.5528 14.1683 19.1382 13.248 19.7915L12.8389 20.0933C11.9116 20.8032 11.1814 21.5571 10.6084 22.4204C9.95431 23.4059 9.53434 24.4888 9.23633 25.728L9.11426 26.2778C8.55095 29.0364 8.6731 31.9347 8.61816 34.4995L8.55469 37.7085L8.54688 38.0532C8.5452 38.1927 8.54691 38.3469 8.55762 38.4829C8.55722 38.4776 8.55639 38.4738 8.55664 38.478C8.55678 38.4804 8.55771 38.4922 8.55859 38.5044C8.56034 38.5286 8.56408 38.5814 8.57617 38.645C8.60153 38.7782 8.67043 39.0039 8.86914 39.2056L8.87012 39.2065C8.96163 39.299 9.05301 39.3579 9.11426 39.3921C9.17826 39.4278 9.23712 39.4521 9.28027 39.4683C9.3642 39.4997 9.44087 39.5174 9.48828 39.5278C9.53927 39.539 9.58561 39.5473 9.61523 39.5522C9.629 39.5545 9.64513 39.5569 9.65234 39.5581C9.66182 39.5596 9.66419 39.5603 9.66309 39.5601H9.66406C10.2794 39.6717 10.8958 39.6843 11.46 39.6724L12.0049 39.6558C13.7606 39.5878 15.3212 39.2763 16.8359 38.3228L17.1377 38.1235C18.9808 36.8531 19.7955 35.1366 20.1543 33.3735C20.4133 32.1009 20.4425 30.7376 20.457 29.5034L20.4746 28.3198C20.5138 26.7745 20.6233 25.0393 20.6416 23.4263L20.6445 23.3755C20.6465 23.3505 20.6523 23.2896 20.6553 23.2339C20.6619 23.1092 20.664 22.9188 20.6094 22.6987C20.5307 22.3817 20.3363 22.1789 20.2373 22.0874C20.1213 21.9802 19.9983 21.9007 19.9004 21.8452C19.8609 21.8229 19.8191 21.8016 19.7764 21.7808C19.9097 21.7175 20.0447 21.6498 20.1807 21.5776L20.5869 21.3472C21.3353 20.8915 22.3308 20.2865 23.2188 19.5864C24.0295 18.9472 24.8706 18.1389 25.3145 17.1831L25.3975 16.9897C25.9114 15.7005 25.5161 14.1091 24.0225 13.396V13.395L23.8701 13.3276C23.6985 13.2565 23.473 13.1814 23.2275 13.1499Z" stroke="#FFF0C9" stroke-width="2"/>
</g>
<g clip-path="url(#clip1_4081_1838)">
<path d="M28.5547 13.2095C28.8333 13.1738 29.3539 13.1749 29.7617 13.5708L29.8408 13.6558L30.0469 13.9126C30.1094 13.9967 30.1657 14.0777 30.2148 14.1479C30.3229 14.3023 30.3996 14.4115 30.4785 14.5073V14.5083L30.7227 14.7915C31.2958 15.4278 31.9113 15.9042 32.7412 16.4136L33.4297 16.8257C34.1281 17.2333 34.8536 17.6316 35.5977 18.0522C36.5761 18.6054 37.5737 19.189 38.4912 19.8403L38.8994 20.1411C39.8222 20.8477 40.5476 21.597 41.1162 22.4536C41.7654 23.4318 42.1817 24.5082 42.4785 25.7427L42.6006 26.2905C43.1622 29.041 43.0407 31.9302 43.0957 34.5005L43.1592 37.7095L43.167 38.0542C43.1687 38.1923 43.1668 38.344 43.1562 38.478L43.1572 38.479L43.1553 38.5005C43.1536 38.5239 43.1501 38.5734 43.1387 38.6333C43.1147 38.7593 43.0499 38.9722 42.8623 39.1626L42.8613 39.1636C42.7049 39.3217 42.5321 39.3897 42.4736 39.4116C42.3933 39.4417 42.3196 39.4591 42.2734 39.4692C42.224 39.4801 42.1787 39.4878 42.1494 39.4927C42.1357 39.495 42.1197 39.4973 42.1123 39.4985C42.1028 39.5001 42.1001 39.5006 42.1006 39.5005H42.0996C41.4899 39.6111 40.8786 39.6237 40.3164 39.6118L39.7725 39.5952H39.7715C38.0224 39.5275 36.4735 39.2179 34.9707 38.272L34.6709 38.0737C32.8439 36.8144 32.0363 35.1131 31.6797 33.3608C31.4218 32.0934 31.3925 30.7369 31.3779 29.5034L31.3604 28.3188C31.321 26.7688 31.2117 25.0403 31.1934 23.4263L31.1797 23.231C31.1732 23.1091 31.171 22.9253 31.2236 22.7134C31.2981 22.4133 31.4826 22.2207 31.5781 22.1323C31.6897 22.0292 31.8089 21.952 31.9043 21.8979C31.9793 21.8555 32.0619 21.8163 32.1465 21.7808C31.9747 21.7016 31.7985 21.6176 31.6221 21.5239L31.2188 21.2954C30.47 20.8395 29.4783 20.236 28.5938 19.5386C27.7848 18.9008 26.9532 18.0999 26.5156 17.1577L26.4336 16.9673C25.9297 15.7034 26.3171 14.1471 27.7783 13.4497L27.9277 13.3833C28.096 13.3136 28.3161 13.24 28.5547 13.2095Z" stroke="url(#paint0_linear_4081_1838)" stroke-width="1.87895"/>
<path d="M23.2197 13.2095C22.9411 13.1738 22.4205 13.1749 22.0127 13.5708L21.9336 13.6558L21.7275 13.9126C21.665 13.9967 21.6088 14.0777 21.5596 14.1479C21.4515 14.3023 21.3748 14.4115 21.2959 14.5073V14.5083L21.0518 14.7915C20.4786 15.4278 19.8631 15.9042 19.0332 16.4136L18.3447 16.8257C17.6463 17.2333 16.9208 17.6316 16.1768 18.0522C15.1983 18.6054 14.2007 19.189 13.2832 19.8403L12.875 20.1411C11.9522 20.8477 11.2268 21.597 10.6582 22.4536C10.009 23.4318 9.59274 24.5082 9.2959 25.7427L9.17383 26.2905C8.61219 29.041 8.73375 31.9302 8.67871 34.5005L8.61523 37.7095L8.60742 38.0542C8.60575 38.1923 8.60762 38.344 8.61816 38.478L8.61719 38.479L8.61914 38.5005C8.62083 38.5239 8.62436 38.5734 8.63574 38.6333C8.65972 38.7593 8.72451 38.9722 8.91211 39.1626L8.91309 39.1636C9.06954 39.3217 9.24236 39.3897 9.30078 39.4116C9.38108 39.4417 9.4548 39.4591 9.50098 39.4692C9.55043 39.4801 9.59567 39.4878 9.625 39.4927C9.6387 39.495 9.65472 39.4973 9.66211 39.4985C9.67158 39.5001 9.67436 39.5006 9.67383 39.5005H9.6748C10.2845 39.6111 10.8958 39.6237 11.458 39.6118L12.002 39.5952H12.0029C13.752 39.5275 15.3009 39.2179 16.8037 38.272L17.1035 38.0737C18.9305 36.8144 19.7382 35.1131 20.0947 33.3608C20.3526 32.0934 20.3819 30.7369 20.3965 29.5034L20.4141 28.3188C20.4534 26.7688 20.5627 25.0403 20.5811 23.4263L20.5947 23.231C20.6012 23.1091 20.6034 22.9253 20.5508 22.7134C20.4763 22.4133 20.2918 22.2207 20.1963 22.1323C20.0847 22.0292 19.9655 21.952 19.8701 21.8979C19.7951 21.8555 19.7125 21.8163 19.6279 21.7808C19.7997 21.7016 19.9759 21.6176 20.1523 21.5239L20.5557 21.2954C21.3044 20.8395 22.2961 20.236 23.1807 19.5386C23.9896 18.9008 24.8212 18.0999 25.2588 17.1577L25.3408 16.9673C25.8447 15.7034 25.4574 14.1471 23.9961 13.4497L23.8467 13.3833C23.6784 13.3136 23.4584 13.24 23.2197 13.2095Z" stroke="url(#paint1_linear_4081_1838)" stroke-width="1.87895"/>
</g>
</g>
<defs>
<filter id="filter0_f_4081_1838" x="-4.97943" y="-0.390565" width="61.7333" height="53.5931" filterUnits="userSpaceOnUse" color-interpolation-filters="sRGB">
<feFlood flood-opacity="0" result="BackgroundImageFix"/>
<feBlend mode="normal" in="SourceGraphic" in2="BackgroundImageFix" result="shape"/>
<feGaussianBlur stdDeviation="6.26315" result="effect1_foregroundBlur_4081_1838"/>
</filter>
<filter id="filter1_f_4081_1838" x="1.28372" y="5.87259" width="49.207" height="41.0668" filterUnits="userSpaceOnUse" color-interpolation-filters="sRGB">
<feFlood flood-opacity="0" result="BackgroundImageFix"/>
<feBlend mode="normal" in="SourceGraphic" in2="BackgroundImageFix" result="shape"/>
<feGaussianBlur stdDeviation="3.13158" result="effect1_foregroundBlur_4081_1838"/>
</filter>
<linearGradient id="paint0_linear_4081_1838" x1="35.1843" y1="9.86573" x2="34.7801" y2="38.6775" gradientUnits="userSpaceOnUse">
<stop stop-color="#FAD77A"/>
<stop offset="0.308223" stop-color="#FFE8A3"/>
<stop offset="1" stop-color="#FFF6DB"/>
</linearGradient>
<linearGradient id="paint1_linear_4081_1838" x1="16.5901" y1="9.86573" x2="16.9943" y2="38.6775" gradientUnits="userSpaceOnUse">
<stop stop-color="#FAD77A"/>
<stop offset="0.308223" stop-color="#FFE8A3"/>
<stop offset="1" stop-color="#FFF6DB"/>
</linearGradient>
<clipPath id="clip0_4081_1838">
<rect width="52" height="52" fill="white"/>
</clipPath>
<clipPath id="clip1_4081_1838">
<rect width="37.5789" height="28.8105" fill="white" transform="translate(7 12)"/>
</clipPath>
</defs>
</svg>
