<svg width="59" height="66" viewBox="0 0 59 66" fill="none" xmlns="http://www.w3.org/2000/svg">
<path d="M45 19.1436C52.8759 23.6908 56.8139 25.9643 58.1355 28.9326C59.2882 31.5217 59.2882 34.4783 58.1355 37.0674C56.8139 40.0357 52.8759 42.3092 45 46.8564L24 58.9808C16.1241 63.5279 12.1861 65.8015 8.95472 65.4619C6.13615 65.1656 3.57567 63.6873 1.90983 61.3945C0 58.7659 0 54.2187 0 45.1244V20.8757C0 11.7813 0 7.23414 1.90983 4.60549C3.57567 2.31266 6.13615 0.834363 8.95472 0.538119C12.1861 0.198486 16.1241 2.47207 24 7.01924L45 19.1436Z" fill="white"/>
</svg>
