<svg width="52" height="52" viewBox="0 0 52 52" fill="none" xmlns="http://www.w3.org/2000/svg">
<g clip-path="url(#clip0_4081_1858)">
<g opacity="0.3" filter="url(#filter0_f_4081_1858)">
<path d="M8.30273 34.5429C7.58366 34.5429 7.00074 35.1258 7.00074 35.8449C7.00074 36.564 7.58366 37.1469 8.30273 37.1469V34.5429ZM21.445 35.8449L22.7005 35.4998L22.4374 34.5429H21.445V35.8449ZM31.6224 35.8449L31.6171 34.5429L30.6311 34.5469L30.3677 35.4972L31.6224 35.8449ZM44.7639 37.0935C45.4829 37.0906 46.0635 36.5053 46.0606 35.7862C46.0576 35.0671 45.4724 34.4866 44.7533 34.4895L44.7639 37.0935ZM8.30273 35.8449V37.1469H21.445V35.8449V34.5429H8.30273V35.8449ZM21.445 35.8449L20.1896 36.19C21.1314 39.6161 24.1885 40.9444 26.5306 40.9444V39.6424V38.3404C25.0215 38.3404 23.2499 37.4987 22.7005 35.4998L21.445 35.8449ZM26.5306 39.6424V40.9444C28.8734 40.9444 31.9283 39.6159 32.8771 36.1927L31.6224 35.8449L30.3677 35.4972C29.8129 37.4989 28.039 38.3404 26.5306 38.3404V39.6424ZM31.6224 35.8449L31.6277 37.1469L44.7639 37.0935L44.7586 35.7915L44.7533 34.4895L31.6171 34.5429L31.6224 35.8449Z" fill="#FFCB63"/>
<mask id="mask0_4081_1858" style="mask-type:alpha" maskUnits="userSpaceOnUse" x="5" y="6" width="43" height="28">
<path d="M26.5303 28.2218C22.1903 28.2218 20.5628 31.4768 20.5628 33.6468C15.6804 33.2852 8.22061 30.8604 5.97771 26.0807C0.700376 14.8344 18.1436 6.42279 25.9002 6.01451C36.207 5.472 42.6867 20.294 47.2075 25.5381L32.4978 33.6468C32.4978 31.448 30.8703 28.2218 26.5303 28.2218Z" fill="#D9D9D9"/>
</mask>
<g mask="url(#mask0_4081_1858)">
<path d="M29.7854 32.5909L43.4563 26.6786M28.7004 30.4209L36.9464 17.5647M26.5304 29.8784V13.6587M24.3604 30.4209L15.4635 17.5647M23.2754 32.5909L9.60449 26.6786" stroke="#FFCB63" stroke-width="1.95299" stroke-linecap="round" stroke-linejoin="round"/>
</g>
</g>
<g opacity="0.1" filter="url(#filter1_f_4081_1858)">
<path d="M8.30273 34.5429C7.58366 34.5429 7.00074 35.1258 7.00074 35.8449C7.00074 36.564 7.58366 37.1469 8.30273 37.1469V34.5429ZM21.445 35.8449L22.7005 35.4998L22.4374 34.5429H21.445V35.8449ZM31.6224 35.8449L31.6171 34.5429L30.6311 34.5469L30.3677 35.4972L31.6224 35.8449ZM44.7639 37.0935C45.4829 37.0906 46.0635 36.5053 46.0606 35.7862C46.0576 35.0671 45.4724 34.4866 44.7533 34.4895L44.7639 37.0935ZM8.30273 35.8449V37.1469H21.445V35.8449V34.5429H8.30273V35.8449ZM21.445 35.8449L20.1896 36.19C21.1314 39.6161 24.1885 40.9444 26.5306 40.9444V39.6424V38.3404C25.0215 38.3404 23.2499 37.4987 22.7005 35.4998L21.445 35.8449ZM26.5306 39.6424V40.9444C28.8734 40.9444 31.9283 39.6159 32.8771 36.1927L31.6224 35.8449L30.3677 35.4972C29.8129 37.4989 28.039 38.3404 26.5306 38.3404V39.6424ZM31.6224 35.8449L31.6277 37.1469L44.7639 37.0935L44.7586 35.7915L44.7533 34.4895L31.6171 34.5429L31.6224 35.8449Z" fill="#FFF0C9"/>
<mask id="mask1_4081_1858" style="mask-type:alpha" maskUnits="userSpaceOnUse" x="5" y="6" width="43" height="28">
<path d="M26.5303 28.2218C22.1903 28.2218 20.5628 31.4768 20.5628 33.6468C15.6804 33.2852 8.22061 30.8604 5.97771 26.0807C0.700376 14.8344 18.1436 6.42279 25.9002 6.01451C36.207 5.472 42.6867 20.294 47.2075 25.5381L32.4978 33.6468C32.4978 31.448 30.8703 28.2218 26.5303 28.2218Z" fill="#D9D9D9"/>
</mask>
<g mask="url(#mask1_4081_1858)">
<path d="M29.7854 32.5909L43.4563 26.6786M28.7004 30.4209L36.9464 17.5647M26.5304 29.8784V13.6587M24.3604 30.4209L15.4635 17.5647M23.2754 32.5909L9.60449 26.6786" stroke="#FFF0C9" stroke-width="1.95299" stroke-linecap="round" stroke-linejoin="round"/>
</g>
</g>
<g clip-path="url(#clip1_4081_1858)">
<path d="M8.30273 34.5429C7.58366 34.5429 7.00074 35.1258 7.00074 35.8449C7.00074 36.564 7.58366 37.1469 8.30273 37.1469V34.5429ZM21.445 35.8449L22.7005 35.4998L22.4374 34.5429H21.445V35.8449ZM31.6224 35.8449L31.6171 34.5429L30.6311 34.5469L30.3677 35.4972L31.6224 35.8449ZM44.7639 37.0935C45.4829 37.0906 46.0635 36.5053 46.0606 35.7862C46.0576 35.0671 45.4724 34.4866 44.7533 34.4895L44.7639 37.0935ZM8.30273 35.8449V37.1469H21.445V35.8449V34.5429H8.30273V35.8449ZM21.445 35.8449L20.1896 36.19C21.1314 39.6161 24.1885 40.9444 26.5306 40.9444V39.6424V38.3404C25.0215 38.3404 23.2499 37.4987 22.7005 35.4998L21.445 35.8449ZM26.5306 39.6424V40.9444C28.8734 40.9444 31.9283 39.6159 32.8771 36.1927L31.6224 35.8449L30.3677 35.4972C29.8129 37.4989 28.039 38.3404 26.5306 38.3404V39.6424ZM31.6224 35.8449L31.6277 37.1469L44.7639 37.0935L44.7586 35.7915L44.7533 34.4895L31.6171 34.5429L31.6224 35.8449Z" fill="url(#paint0_linear_4081_1858)"/>
<mask id="mask2_4081_1858" style="mask-type:alpha" maskUnits="userSpaceOnUse" x="5" y="6" width="43" height="28">
<path d="M26.5303 28.2218C22.1903 28.2218 20.5628 31.4768 20.5628 33.6468C15.6804 33.2852 8.22061 30.8604 5.97771 26.0807C0.700376 14.8344 18.1436 6.42279 25.9002 6.01451C36.207 5.472 42.6867 20.294 47.2075 25.5381L32.4978 33.6468C32.4978 31.448 30.8703 28.2218 26.5303 28.2218Z" fill="#D9D9D9"/>
</mask>
<g mask="url(#mask2_4081_1858)">
<path d="M29.7854 32.5909L43.4563 26.6786M28.7004 30.4209L36.9464 17.5647M26.5304 29.8784V13.6587M24.3604 30.4209L15.4635 17.5647M23.2754 32.5909L9.60449 26.6786" stroke="url(#paint1_linear_4081_1858)" stroke-width="1.95299" stroke-linecap="round" stroke-linejoin="round"/>
</g>
</g>
</g>
<defs>
<filter id="filter0_f_4081_1858" x="-6.01897" y="-0.337814" width="65.0995" height="54.3021" filterUnits="userSpaceOnUse" color-interpolation-filters="sRGB">
<feFlood flood-opacity="0" result="BackgroundImageFix"/>
<feBlend mode="normal" in="SourceGraphic" in2="BackgroundImageFix" result="shape"/>
<feGaussianBlur stdDeviation="6.50997" result="effect1_foregroundBlur_4081_1858"/>
</filter>
<filter id="filter1_f_4081_1858" x="0.491005" y="6.17216" width="52.0795" height="41.2822" filterUnits="userSpaceOnUse" color-interpolation-filters="sRGB">
<feFlood flood-opacity="0" result="BackgroundImageFix"/>
<feBlend mode="normal" in="SourceGraphic" in2="BackgroundImageFix" result="shape"/>
<feGaussianBlur stdDeviation="3.25499" result="effect1_foregroundBlur_4081_1858"/>
</filter>
<linearGradient id="paint0_linear_4081_1858" x1="26.6843" y1="32.5338" x2="26.6614" y2="39.7011" gradientUnits="userSpaceOnUse">
<stop offset="0.208038" stop-color="#FFE8A3"/>
<stop offset="1" stop-color="#FFF6DB"/>
</linearGradient>
<linearGradient id="paint1_linear_4081_1858" x1="27.0409" y1="9.99266" x2="29.2311" y2="32.761" gradientUnits="userSpaceOnUse">
<stop stop-color="#FAD77A"/>
<stop offset="0.790768" stop-color="#FFE8A3"/>
</linearGradient>
<clipPath id="clip0_4081_1858">
<rect width="52" height="52" fill="white"/>
</clipPath>
<clipPath id="clip1_4081_1858">
<rect width="39.0598" height="29.9459" fill="white" transform="translate(7 11.0542)"/>
</clipPath>
</defs>
</svg>
