<svg width="72" height="70" viewBox="0 0 72 70" fill="none" xmlns="http://www.w3.org/2000/svg">
<g opacity="0.2" filter="url(#filter0_f_4081_1813)">
<path d="M20.8564 38.9248C21.9668 38.7195 23.2792 38.7071 24.5283 38.7842C25.9734 38.8734 27.4198 39.0883 28.5312 39.3242L28.9775 39.4268C31.1799 39.9763 32.9635 41.0491 34.2842 42.5566C35.0437 43.4238 35.6345 44.4201 36.0664 45.5146C36.8391 43.5534 38.1569 41.8224 40.1621 40.6357L40.3613 40.5234C41.382 39.9749 42.7283 39.6406 43.998 39.4297C45.3794 39.2003 46.7883 39.099 47.8418 39.0684L48.5957 39.0596C49.4513 39.0651 50.5678 39.1317 51.5508 39.4092C52.2045 39.5938 52.9126 39.9013 53.4307 40.4492C53.9584 41.0076 54.2175 41.7405 54.125 42.5928L54.1016 42.7646C54.025 43.2414 53.7713 43.6832 53.5303 44.0283C53.2745 44.3946 52.9559 44.7584 52.6348 45.0889C52.1532 45.5844 51.6252 46.0478 51.2002 46.3906L50.8154 46.6895V46.6904C48.0403 48.7558 44.9695 50.4121 41.5449 51.3564L40.8555 51.5352C39.9558 51.7548 39.1142 51.8346 38.293 51.8926L37.4766 51.9482C32.9709 52.2606 29.0356 51.1357 25.1992 49.0498V49.0488C24.2076 48.5098 22.8494 47.6429 21.5898 46.6846C20.4326 45.804 19.2625 44.7754 18.5684 43.8018L18.4355 43.6074C17.8339 42.683 17.6626 41.6444 18.1055 40.7148C18.5311 39.8218 19.4115 39.2707 20.3945 39.0244L20.8564 38.9248Z" stroke="#FFCB63" stroke-width="2"/>
<path d="M36.0908 18.333C36.955 18.3331 37.7054 18.562 38.3135 19C38.9157 19.4338 39.3147 20.027 39.5635 20.6543C39.9891 21.7278 40.0089 22.9821 39.8105 24.0703L39.7119 24.5254C39.6176 24.9051 39.4373 25.2902 39.3125 25.5625C39.1675 25.8789 39.071 26.0974 39.0234 26.2842C39.0064 26.3513 39.0023 26.3944 39.001 26.4189C39.0342 26.4463 39.1102 26.4971 39.2666 26.5566L39.4512 26.6182C39.8916 26.7455 40.4046 26.7639 41.0859 26.7812C41.7064 26.7971 42.4895 26.8125 43.2568 27.0459L43.585 27.1592V27.1602L43.7559 27.2314C44.609 27.6143 45.4633 28.3241 46.1768 29.0068C46.9615 29.7578 47.6764 30.5767 48.1699 31.1631L48.6377 31.7188C48.8047 31.9211 48.9772 32.138 49.1406 32.3594C49.4656 32.7995 49.8007 33.3216 50 33.8809C50.2022 34.4482 50.2945 35.1429 49.9951 35.8369C49.7346 36.4406 49.2409 36.898 48.5977 37.2402L48.3125 37.3799C46.6922 38.1137 44.6468 38.0304 42.8369 37.583C41.0139 37.1323 39.2202 36.2609 38.0596 35.1768H38.0586C37.1495 34.3269 36.4741 33.3248 35.9971 32.251C35.1503 34.1329 33.7022 35.7527 31.6182 36.7471L31.2559 36.9102C30.2263 37.3504 28.8284 37.7239 27.4336 37.8506C26.1533 37.9668 24.7237 37.8898 23.5762 37.3242L23.3506 37.2041C22.7679 36.8716 22.2338 36.4121 21.9727 35.75C21.7021 35.064 21.7999 34.3562 22.085 33.6992L22.2119 33.4258C22.8873 32.0685 24.1305 30.8255 25.0088 29.9287L25.7422 29.1807C26.0198 28.9038 26.3254 28.6113 26.6426 28.3369C27.2614 27.8016 28.0403 27.2305 28.8789 26.9971L29.168 26.9277C29.847 26.7856 30.5502 26.7862 31.0986 26.7725C31.7897 26.7552 32.3066 26.7184 32.7402 26.5508L32.918 26.4697C32.9869 26.4319 33.0212 26.4021 33.0361 26.3867C33.038 26.3666 33.0386 26.3188 33.0195 26.2285C32.9809 26.0456 32.8946 25.8277 32.7627 25.5156C32.6771 25.3133 32.5621 25.0484 32.4717 24.7734L32.3916 24.4961C32.0764 23.2037 32.0435 21.7288 32.5742 20.5186C32.8461 19.8988 33.2724 19.3387 33.8867 18.9375C34.5019 18.5358 35.2464 18.333 36.0908 18.333Z" stroke="#FFCB63" stroke-width="2"/>
</g>
<g opacity="0.1" filter="url(#filter1_f_4081_1813)">
<path d="M20.8564 38.9248C21.9668 38.7195 23.2792 38.7071 24.5283 38.7842C25.9734 38.8734 27.4198 39.0883 28.5312 39.3242L28.9775 39.4268C31.1799 39.9763 32.9635 41.0491 34.2842 42.5566C35.0437 43.4238 35.6345 44.4201 36.0664 45.5146C36.8391 43.5534 38.1569 41.8224 40.1621 40.6357L40.3613 40.5234C41.382 39.9749 42.7283 39.6406 43.998 39.4297C45.3794 39.2003 46.7883 39.099 47.8418 39.0684L48.5957 39.0596C49.4513 39.0651 50.5678 39.1317 51.5508 39.4092C52.2045 39.5938 52.9126 39.9013 53.4307 40.4492C53.9584 41.0076 54.2175 41.7405 54.125 42.5928L54.1016 42.7646C54.025 43.2414 53.7713 43.6832 53.5303 44.0283C53.2745 44.3946 52.9559 44.7584 52.6348 45.0889C52.1532 45.5844 51.6252 46.0478 51.2002 46.3906L50.8154 46.6895V46.6904C48.0403 48.7558 44.9695 50.4121 41.5449 51.3564L40.8555 51.5352C39.9558 51.7548 39.1142 51.8346 38.293 51.8926L37.4766 51.9482C32.9709 52.2606 29.0356 51.1357 25.1992 49.0498V49.0488C24.2076 48.5098 22.8494 47.6429 21.5898 46.6846C20.4326 45.804 19.2625 44.7754 18.5684 43.8018L18.4355 43.6074C17.8339 42.683 17.6626 41.6444 18.1055 40.7148C18.5311 39.8218 19.4115 39.2707 20.3945 39.0244L20.8564 38.9248Z" stroke="#FFF0C9" stroke-width="2"/>
<path d="M36.0908 18.333C36.955 18.3331 37.7054 18.562 38.3135 19C38.9157 19.4338 39.3147 20.027 39.5635 20.6543C39.9891 21.7278 40.0089 22.9821 39.8105 24.0703L39.7119 24.5254C39.6176 24.9051 39.4373 25.2902 39.3125 25.5625C39.1675 25.8789 39.071 26.0974 39.0234 26.2842C39.0064 26.3513 39.0023 26.3944 39.001 26.4189C39.0342 26.4463 39.1102 26.4971 39.2666 26.5566L39.4512 26.6182C39.8916 26.7455 40.4046 26.7639 41.0859 26.7812C41.7064 26.7971 42.4895 26.8125 43.2568 27.0459L43.585 27.1592V27.1602L43.7559 27.2314C44.609 27.6143 45.4633 28.3241 46.1768 29.0068C46.9615 29.7578 47.6764 30.5767 48.1699 31.1631L48.6377 31.7188C48.8047 31.9211 48.9772 32.138 49.1406 32.3594C49.4656 32.7995 49.8007 33.3216 50 33.8809C50.2022 34.4482 50.2945 35.1429 49.9951 35.8369C49.7346 36.4406 49.2409 36.898 48.5977 37.2402L48.3125 37.3799C46.6922 38.1137 44.6468 38.0304 42.8369 37.583C41.0139 37.1323 39.2202 36.2609 38.0596 35.1768H38.0586C37.1495 34.3269 36.4741 33.3248 35.9971 32.251C35.1503 34.1329 33.7022 35.7527 31.6182 36.7471L31.2559 36.9102C30.2263 37.3504 28.8284 37.7239 27.4336 37.8506C26.1533 37.9668 24.7237 37.8898 23.5762 37.3242L23.3506 37.2041C22.7679 36.8716 22.2338 36.4121 21.9727 35.75C21.7021 35.064 21.7999 34.3562 22.085 33.6992L22.2119 33.4258C22.8873 32.0685 24.1305 30.8255 25.0088 29.9287L25.7422 29.1807C26.0198 28.9038 26.3254 28.6113 26.6426 28.3369C27.2614 27.8016 28.0403 27.2305 28.8789 26.9971L29.168 26.9277C29.847 26.7856 30.5502 26.7862 31.0986 26.7725C31.7897 26.7552 32.3066 26.7184 32.7402 26.5508L32.918 26.4697C32.9869 26.4319 33.0212 26.4021 33.0361 26.3867C33.038 26.3666 33.0386 26.3188 33.0195 26.2285C32.9809 26.0456 32.8946 25.8277 32.7627 25.5156C32.6771 25.3133 32.5621 25.0484 32.4717 24.7734L32.3916 24.4961C32.0764 23.2037 32.0435 21.7288 32.5742 20.5186C32.8461 19.8988 33.2724 19.3387 33.8867 18.9375C34.5019 18.5358 35.2464 18.333 36.0908 18.333Z" stroke="#FFF0C9" stroke-width="2"/>
</g>
<path d="M20.8564 38.9248C21.9668 38.7195 23.2792 38.7071 24.5283 38.7842C25.9734 38.8734 27.4198 39.0883 28.5312 39.3242L28.9775 39.4268C31.1799 39.9763 32.9635 41.0491 34.2842 42.5566C35.0437 43.4238 35.6345 44.4201 36.0664 45.5146C36.8391 43.5534 38.1569 41.8224 40.1621 40.6357L40.3613 40.5234C41.382 39.9749 42.7283 39.6406 43.998 39.4297C45.3794 39.2003 46.7883 39.099 47.8418 39.0684L48.5957 39.0596C49.4513 39.0651 50.5678 39.1317 51.5508 39.4092C52.2045 39.5938 52.9126 39.9013 53.4307 40.4492C53.9584 41.0076 54.2175 41.7405 54.125 42.5928L54.1016 42.7646C54.025 43.2414 53.7713 43.6832 53.5303 44.0283C53.2745 44.3946 52.9559 44.7584 52.6348 45.0889C52.1532 45.5844 51.6252 46.0478 51.2002 46.3906L50.8154 46.6895V46.6904C48.0403 48.7558 44.9695 50.4121 41.5449 51.3564L40.8555 51.5352C39.9558 51.7548 39.1142 51.8346 38.293 51.8926L37.4766 51.9482C32.9709 52.2606 29.0356 51.1357 25.1992 49.0498V49.0488C24.2076 48.5098 22.8494 47.6429 21.5898 46.6846C20.4326 45.804 19.2625 44.7754 18.5684 43.8018L18.4355 43.6074C17.8339 42.683 17.6626 41.6444 18.1055 40.7148C18.5311 39.8218 19.4115 39.2707 20.3945 39.0244L20.8564 38.9248Z" stroke="url(#paint0_linear_4081_1813)" stroke-width="2"/>
<path d="M36.0908 18.333C36.955 18.3331 37.7054 18.562 38.3135 19C38.9157 19.4338 39.3147 20.027 39.5635 20.6543C39.9891 21.7278 40.0089 22.9821 39.8105 24.0703L39.7119 24.5254C39.6176 24.9051 39.4373 25.2902 39.3125 25.5625C39.1675 25.8789 39.071 26.0974 39.0234 26.2842C39.0064 26.3513 39.0023 26.3944 39.001 26.4189C39.0342 26.4463 39.1102 26.4971 39.2666 26.5566L39.4512 26.6182C39.8916 26.7455 40.4046 26.7639 41.0859 26.7812C41.7064 26.7971 42.4895 26.8125 43.2568 27.0459L43.585 27.1592V27.1602L43.7559 27.2314C44.609 27.6143 45.4633 28.3241 46.1768 29.0068C46.9615 29.7578 47.6764 30.5767 48.1699 31.1631L48.6377 31.7188C48.8047 31.9211 48.9772 32.138 49.1406 32.3594C49.4656 32.7995 49.8007 33.3216 50 33.8809C50.2022 34.4482 50.2945 35.1429 49.9951 35.8369C49.7346 36.4406 49.2409 36.898 48.5977 37.2402L48.3125 37.3799C46.6922 38.1137 44.6468 38.0304 42.8369 37.583C41.0139 37.1323 39.2202 36.2609 38.0596 35.1768H38.0586C37.1495 34.3269 36.4741 33.3248 35.9971 32.251C35.1503 34.1329 33.7022 35.7527 31.6182 36.7471L31.2559 36.9102C30.2263 37.3504 28.8284 37.7239 27.4336 37.8506C26.1533 37.9668 24.7237 37.8898 23.5762 37.3242L23.3506 37.2041C22.7679 36.8716 22.2338 36.4121 21.9727 35.75C21.7021 35.064 21.7999 34.3562 22.085 33.6992L22.2119 33.4258C22.8873 32.0685 24.1305 30.8255 25.0088 29.9287L25.7422 29.1807C26.0198 28.9038 26.3254 28.6113 26.6426 28.3369C27.2614 27.8016 28.0403 27.2305 28.8789 26.9971L29.168 26.9277C29.847 26.7856 30.5502 26.7862 31.0986 26.7725C31.7897 26.7552 32.3066 26.7184 32.7402 26.5508L32.918 26.4697C32.9869 26.4319 33.0212 26.4021 33.0361 26.3867C33.038 26.3666 33.0386 26.3188 33.0195 26.2285C32.9809 26.0456 32.8946 25.8277 32.7627 25.5156C32.6771 25.3133 32.5621 25.0484 32.4717 24.7734L32.3916 24.4961C32.0764 23.2037 32.0435 21.7288 32.5742 20.5186C32.8461 19.8988 33.2724 19.3387 33.8867 18.9375C34.5019 18.5358 35.2464 18.333 36.0908 18.333Z" stroke="url(#paint1_linear_4081_1813)" stroke-width="2"/>
<defs>
<filter id="filter0_f_4081_1813" x="0.189779" y="0.666342" width="71.6195" height="68.9998" filterUnits="userSpaceOnUse" color-interpolation-filters="sRGB">
<feFlood flood-opacity="0" result="BackgroundImageFix"/>
<feBlend mode="normal" in="SourceGraphic" in2="BackgroundImageFix" result="shape"/>
<feGaussianBlur stdDeviation="8.33333" result="effect1_foregroundBlur_4081_1813"/>
</filter>
<filter id="filter1_f_4081_1813" x="8.52311" y="8.99967" width="54.9528" height="52.3332" filterUnits="userSpaceOnUse" color-interpolation-filters="sRGB">
<feFlood flood-opacity="0" result="BackgroundImageFix"/>
<feBlend mode="normal" in="SourceGraphic" in2="BackgroundImageFix" result="shape"/>
<feGaussianBlur stdDeviation="4.16667" result="effect1_foregroundBlur_4081_1813"/>
</filter>
<linearGradient id="paint0_linear_4081_1813" x1="37.1142" y1="37.7819" x2="37.0768" y2="51.0026" gradientUnits="userSpaceOnUse">
<stop stop-color="#FFE8A3"/>
<stop offset="0.918421" stop-color="#FFF6DB"/>
</linearGradient>
<linearGradient id="paint1_linear_4081_1813" x1="36.268" y1="16.224" x2="42.9606" y2="34.6622" gradientUnits="userSpaceOnUse">
<stop offset="0.110153" stop-color="#FAD77A"/>
<stop offset="0.752735" stop-color="#FFE8A3"/>
</linearGradient>
</defs>
</svg>
