<svg width="20" height="24" viewBox="0 0 20 24" fill="none" xmlns="http://www.w3.org/2000/svg">
<path d="M16.7045 12.7631C16.729 10.9104 17.7481 9.15738 19.3648 8.18699C18.3449 6.76488 16.6366 5.86322 14.8592 5.80893C12.9636 5.61467 11.1258 6.91639 10.1598 6.91639C9.17508 6.91639 7.68777 5.82822 6.08619 5.86039C3.99859 5.92624 2.05242 7.08501 1.03676 8.86687C-1.14651 12.5573 0.482015 17.9809 2.5734 20.964C3.61977 22.4247 4.84267 24.0564 6.44281 23.9985C8.00865 23.9351 8.59346 23.0237 10.4836 23.0237C12.3561 23.0237 12.9048 23.9985 14.5374 23.9617C16.2176 23.9351 17.2762 22.4945 18.2859 21.02C19.0377 19.9792 19.6162 18.8288 20 17.6116C18.0254 16.7962 16.7068 14.8562 16.7045 12.7631Z" fill="black"/>
<path d="M13.6208 3.84713C14.5369 2.77343 14.9882 1.39335 14.8789 0C13.4793 0.143521 12.1864 0.796601 11.2579 1.82911C10.35 2.83793 9.87749 4.19372 9.96681 5.53382C11.3669 5.54789 12.7434 4.91252 13.6208 3.84713Z" fill="black"/>
</svg>
