<svg width="3652" height="2574" viewBox="0 0 3652 2574" fill="none" xmlns="http://www.w3.org/2000/svg">
<g filter="url(#filter0_f_6005_389)">
<path d="M1255.92 1802.27C1148.65 1852.76 832.373 1964.69 792.723 1958.68C743.159 1951.17 536.995 1860.58 646.685 1740.69C1059.92 1289.04 1133.68 1275.16 1417.56 1144.22C1426.15 1139.46 1432.54 1135.53 1437.17 1132.31C1404.24 1125.13 1472.91 1107.51 1437.17 1132.31C1444.21 1133.85 1455.89 1134.91 1474.24 1134.98C1618.3 1135.5 2006.27 1027.82 1993.37 1004.49C1984.81 989.022 2369.68 950.74 2658.26 901.186L2424.47 680.459L3036.23 615.262C2926.41 648.612 3082.79 706.076 2959.45 818.305C2927 847.837 2805.1 875.971 2658.26 901.186L2734.66 973.317L2733.67 1267.81L1767.28 1625.11L1255.92 1802.27Z" fill="#292656"/>
</g>
<g filter="url(#filter1_f_6005_389)">
<path d="M853.053 1778.04C881.445 1786.33 1504.44 1653.73 1501.42 1662.7L1863.89 1599.41L2522.05 1329.78L2502.98 1054.17L2734.82 696.779L2583.14 781.03C2507.86 804.881 2368.24 870.595 2327.38 910.238C2276.29 959.793 2056.69 1101.64 2090.35 1114.98C2124.01 1128.33 1880.52 1194.91 1745.59 1207.17C1478.15 1231.46 1261.2 1324.58 1227.39 1348.83C1057.66 1426.5 1032.18 1443.78 1117.75 1457.34C1177.61 1466.83 817.564 1767.68 853.053 1778.04Z" fill="#343072"/>
</g>
<g filter="url(#filter2_f_6005_389)">
<path d="M1264.07 1494.79C802.664 1700.09 1405.53 1681.1 1425.75 1692.94L2084.83 1462.55L2398.38 1288.66L2392.54 1104.77L2656.56 793.631L2513.9 843.371C2454.21 861.818 2052.49 904.877 2076.55 1007.13C2082.76 1033.56 1956.33 1093.72 1983.93 1101.04C2076.28 1125.53 1889.85 1248.61 1819.5 1235.21C1668.5 1206.46 1711.37 1100.59 1685.45 1117.06C1523.12 1185.76 1415.08 1308.41 1566.24 1283.96C1631.97 1273.33 1502.63 1388.64 1264.07 1494.79Z" fill="#524D9B"/>
</g>
<g filter="url(#filter3_f_6005_389)">
<path d="M1754.29 1436.5C1776.23 1441.12 1828 1515.37 1825.34 1521.48L2111.05 1467.16L2634.93 1264.98L2629.09 1081.1L2452.11 891.492L2309.45 941.232C2249.76 959.679 2459.55 913.217 2426.26 941.103C2384.66 975.96 2496.64 1006.61 2517.83 1016.58C2614.83 1062.22 1997.17 1235.22 1887.87 1246.9C1812.74 1254.92 1464.38 1293.33 1396.53 1331.01C1224.5 1402.62 1438.79 1392.2 1531.68 1394.12C1583.87 1395.2 1726.86 1430.74 1754.29 1436.5Z" fill="#6862B2"/>
</g>
<g filter="url(#filter4_f_6005_389)">
<path d="M1880.7 1536.58C1881.82 1530.54 1788.69 1471.96 1773.55 1464.82C1754.63 1455.9 1702.29 1388.95 1661.96 1383.55C1597.57 1374.91 1401.29 1357.75 1500.89 1315.86C1527.31 1301.26 1626.86 1253.65 1918.67 1234.13C1997.51 1228.86 2582 1203.91 2723.29 1161.71L2753.96 1143.48C2754.09 1141.07 2752.72 1138.62 2749.71 1136.13C2734.5 1123.52 2538.51 1152.53 2562.53 1120.89C2581.74 1095.57 3012.21 898.005 3050.06 885.309L3194.48 843.275L2909.03 1051.3L2753.96 1143.48C2753.59 1149.87 2742.56 1155.95 2723.29 1161.71L2393.32 1357.85L2065.5 1511.02L1880.7 1536.58Z" fill="#E47F87"/>
</g>
<g filter="url(#filter5_f_6005_389)">
<path d="M2048.62 1411.74C2063.76 1418.88 2115.22 1505.53 2114.1 1511.57L2298.9 1486.01L2626.71 1332.83L2603.05 1141.66L2464.57 926.162L2374.73 962.364C2336.88 975.06 2251.54 1035.43 2232.33 1060.75C2208.31 1092.39 2294.91 1148.96 2310.12 1161.57C2379.75 1219.29 2196.02 1243.27 2095.61 1255.84C2037.87 1263.07 1906.05 1276.82 1889.79 1279.44C1761.21 1309.41 1745.38 1394.11 1790.43 1407.75C1821.94 1417.29 2029.7 1402.82 2048.62 1411.74Z" fill="#E0B850"/>
</g>
<defs>
<filter id="filter0_f_6005_389" x="0.12616" y="0.411316" width="3650.96" height="2573.35" filterUnits="userSpaceOnUse" color-interpolation-filters="sRGB">
<feFlood flood-opacity="0" result="BackgroundImageFix"/>
<feBlend mode="normal" in="SourceGraphic" in2="BackgroundImageFix" result="shape"/>
<feGaussianBlur stdDeviation="307.425" result="effect1_foregroundBlur_6005_389"/>
</filter>
<filter id="filter1_f_6005_389" x="389.448" y="235.641" width="2806.51" height="2003.91" filterUnits="userSpaceOnUse" color-interpolation-filters="sRGB">
<feFlood flood-opacity="0" result="BackgroundImageFix"/>
<feBlend mode="normal" in="SourceGraphic" in2="BackgroundImageFix" result="shape"/>
<feGaussianBlur stdDeviation="230.569" result="effect1_foregroundBlur_6005_389"/>
</filter>
<filter id="filter2_f_6005_389" x="708.211" y="411.225" width="2330.76" height="1664.13" filterUnits="userSpaceOnUse" color-interpolation-filters="sRGB">
<feFlood flood-opacity="0" result="BackgroundImageFix"/>
<feBlend mode="normal" in="SourceGraphic" in2="BackgroundImageFix" result="shape"/>
<feGaussianBlur stdDeviation="191.203" result="effect1_foregroundBlur_6005_389"/>
</filter>
<filter id="filter3_f_6005_389" x="949.275" y="509.086" width="2068.06" height="1394.8" filterUnits="userSpaceOnUse" color-interpolation-filters="sRGB">
<feFlood flood-opacity="0" result="BackgroundImageFix"/>
<feBlend mode="normal" in="SourceGraphic" in2="BackgroundImageFix" result="shape"/>
<feGaussianBlur stdDeviation="191.203" result="effect1_foregroundBlur_6005_389"/>
</filter>
<filter id="filter4_f_6005_389" x="1090.8" y="460.868" width="2486.09" height="1458.12" filterUnits="userSpaceOnUse" color-interpolation-filters="sRGB">
<feFlood flood-opacity="0" result="BackgroundImageFix"/>
<feBlend mode="normal" in="SourceGraphic" in2="BackgroundImageFix" result="shape"/>
<feGaussianBlur stdDeviation="191.203" result="effect1_foregroundBlur_6005_389"/>
</filter>
<filter id="filter5_f_6005_389" x="1512.64" y="671.225" width="1369.01" height="1095.28" filterUnits="userSpaceOnUse" color-interpolation-filters="sRGB">
<feFlood flood-opacity="0" result="BackgroundImageFix"/>
<feBlend mode="normal" in="SourceGraphic" in2="BackgroundImageFix" result="shape"/>
<feGaussianBlur stdDeviation="127.469" result="effect1_foregroundBlur_6005_389"/>
</filter>
</defs>
</svg>
