<svg width="120" height="40" viewBox="0 0 120 40" fill="none" xmlns="http://www.w3.org/2000/svg">
<g clip-path="url(#clip0_3064_2497)">
<g opacity="0.8">
<g filter="url(#filter0_f_3064_2497)">
<path d="M99.9154 1.55155C100.11 3.41748 103.004 8.98265 103.745 10.8595C104.707 13.2962 107.397 14.3772 107.428 14.5259C105.6 14.7537 105.457 16.9541 104.327 18.6161C103.366 20.0292 100.112 28.286 99.9154 30.0571C99.6549 28.6999 97.7486 20.6082 95.9884 18.6161C94.4825 16.9118 92.8022 14.485 92.3296 14.4031C94.4267 14.2006 94.8249 12.8516 95.9884 10.8595C97.0523 9.03789 99.2045 3.38113 99.2849 3.10288L99.9154 1.55155Z" fill="#E9878F"/>
</g>
<g filter="url(#filter1_f_3064_2497)">
<path d="M99.9774 1.93932C100.172 3.80525 101.647 9.17645 102.388 11.0533C103.35 13.49 107.397 14.3771 107.428 14.5258C105.6 14.7536 104.294 16.1782 103.163 17.8402C102.202 19.2533 100.175 27.5101 99.9774 29.2812C99.7169 27.9241 97.7486 19.4445 95.9884 17.4524C94.4825 15.7481 92.8022 14.4849 92.3296 14.403C94.4267 14.2005 95.6006 13.4332 96.764 11.4411C97.8279 9.61952 100.039 -2.90576 99.9774 0.969657V1.93932Z" fill="#E9878F"/>
</g>
<g opacity="0.7" filter="url(#filter2_f_3064_2497)">
<path d="M100.448 5.62357C100.643 7.48949 100.854 10.1623 101.594 12.0392C102.557 14.4759 107.397 14.377 107.428 14.5257C105.6 14.7535 103.518 15.5965 102.388 17.2585C101.427 18.6716 100.112 25.377 99.9154 27.1482C99.6549 25.791 99.2999 19.0567 97.5397 17.0646C96.0339 15.3603 92.8022 14.4848 92.3296 14.4029C94.4267 14.2004 96.764 14.2088 97.9275 12.2167C98.9914 10.3951 99.8349 4.15658 99.9154 3.87833L100.448 5.62357Z" fill="#FFE0B0"/>
</g>
</g>
<path d="M99.9154 5.23364C100.11 7.09957 100.421 10.1044 101.161 11.9813C102.124 14.418 107.397 14.3771 107.428 14.5258C105.6 14.7535 102.725 15.0052 101.594 16.6672C100.634 18.0803 100.175 23.0145 99.9774 24.7856C99.7169 23.4285 99.8294 18.3708 98.0692 16.3787C96.5634 14.6744 92.8022 14.4848 92.3296 14.403C94.4267 14.2004 97.319 14.0313 98.4825 12.0392C99.5464 10.2176 99.8349 5.51121 99.9154 5.23296V5.23364Z" fill="url(#paint0_linear_3064_2497)"/>
<path d="M90.2483 29.0236C90.3601 29.1443 90.3799 29.012 90.3942 28.9111C90.9153 25.3722 87.3082 22.7261 87.7263 18.9574C87.9118 17.2845 89.7348 15.7173 91.4138 16.4456C92.3911 16.8692 91.8748 17.4386 91.81 18.2072C91.4404 22.604 95.4014 24.4249 97.2769 27.6835C99.2021 31.0286 99.4122 35.4991 99.9407 39.2364C100.072 39.0482 100.301 30.8861 101.899 28.0252C103.81 24.6043 107.905 22.7534 107.501 18.2816C107.437 17.5627 106.937 17.0431 107.824 16.5943C109.505 15.7439 111.389 17.2586 111.585 18.9574C112.034 22.842 108.625 25.2045 108.915 28.8374C108.922 28.9233 108.938 29.1709 109.064 29.1709C109.075 28.997 109.124 28.8313 109.2 28.6751C111.529 23.8623 115.592 22.2617 113.285 16.0692C111.895 12.336 108.338 8.90556 109.956 4.67449C110.474 3.31802 111.753 2.12385 113.306 2.59306C114.624 2.99134 113.964 3.84519 113.772 4.69632C113.043 7.91599 115.856 11.4044 117.285 14.1528C120.66 20.6385 119.034 29.0256 114.087 34.2279C107.252 41.4133 94.5435 41.8287 86.8342 35.8176C81.1492 31.3846 78.9798 23.3372 81.006 16.4763C82.0808 12.8366 86.3043 8.58571 85.6033 4.78293C85.443 3.91544 84.6798 2.94497 85.9129 2.49758C87.1718 2.04133 88.471 2.83107 89.0705 3.91885C91.4847 8.29723 87.1364 12.5413 85.784 16.5684C83.9501 22.0284 87.9609 24.2476 90.1126 28.5257C90.1815 28.6628 90.2312 29.0038 90.249 29.0222L90.2483 29.0236ZM94.4685 7.92759C95.3844 5.23304 94.8524 2.36596 92.816 0.845118C91.7548 0.0526454 89.9291 -0.524318 89.0582 0.735318C88.5269 1.50324 89.2417 1.69488 89.6195 2.10748C92.9981 5.80251 89.9394 11.1077 87.9432 14.6738C87.9977 14.7277 93.3329 11.2721 94.4691 7.92759H94.4685ZM109.945 11.9738C108.421 9.19746 107.28 5.31284 109.48 2.56305C109.965 1.95744 110.866 1.64441 110.287 0.777601C109.672 -0.143768 108.097 -0.0244195 107.231 0.462522C104.422 2.04133 103.859 5.73362 104.712 8.07831C105.576 10.453 108.313 12.6449 111.37 14.3765C111.31 14.2114 110.332 12.6797 109.945 11.9732V11.9738Z" fill="url(#paint1_linear_3064_2497)"/>
<path d="M84.0089 38.5313C83.9728 38.6274 82.1676 38.6124 81.4467 38.6015C76.1735 38.521 70.8629 38.8252 65.6041 38.5961C64.3635 38.5422 62.9982 38.5981 61.8968 37.9216C60.6555 37.1591 60.2307 35.6853 60.2082 34.2934C59.8883 34.6344 59.6646 35.0572 59.3543 35.4098C56.8855 38.221 51.4739 39.0625 48.2856 37.1039C46.3494 35.9145 45.5685 33.8644 46.374 31.6916C43.6303 34.5553 41.3436 37.8888 37.1051 38.4474C34.2182 38.8279 29.8473 38.7352 26.925 38.4562C22.1811 38.0034 18.6668 36.9784 17.5503 31.8423C16.9618 29.1348 17.5735 25.5127 14.2441 24.59C12.9824 24.2408 11.5311 24.1508 10.2271 24.1072C10.4638 23.9721 14.909 23.7177 17.2919 22.1369C19.8091 20.4667 20.1937 17.5662 19.1653 14.8382C17.8872 11.4494 14.24 10.912 10.8621 10.9454C10.474 10.9495 10.1889 10.9707 9.81111 11.0177C9.6638 11.0361 10.5217 10.8186 10.8307 10.7538L11.9287 10.5321C12.4988 10.4728 12.8971 10.4039 13.2749 10.3971C17.1343 10.3275 21.525 10.8343 22.758 15.1874C23.6828 18.4514 22.4504 21.6588 19.4504 23.2547L17.5156 24.1072C18.9737 24.5027 20.2244 25.9001 20.6595 27.3214C21.4943 30.0432 20.963 33.475 22.8712 35.8156C24.7412 38.1091 28.6409 38.1616 31.3484 38.0102C31.5918 37.7845 30.4768 37.1952 30.3581 37.1182C25.1259 33.7069 23.6808 27.2607 26.5929 22.54C27.9827 20.2873 31.2393 17.7278 34.2489 17.4168C31.182 18.7024 29.4599 21.9425 28.8605 25.0729C27.8307 30.4504 30.3868 36.8167 36.5185 37.1925C41.8728 37.5205 44.3341 32.4043 47.7468 29.3851C50.1229 27.2832 53.303 26.1579 56.0173 24.5675C56.5063 24.2811 57.5968 23.6598 57.8069 23.1599C58.1363 22.3756 57.2824 21.8157 56.5916 21.7379C53.674 21.4099 50.8465 25.8626 47.8 23.6673C45.6347 22.1069 46.9564 18.8879 48.9274 17.6603C53.2628 14.9596 62.4928 16.1251 63.9789 21.8627C64.8975 25.4084 64.1705 30.554 64.4433 34.3343C64.4931 35.0272 64.7072 35.9322 65.0851 36.518C66.3788 38.5265 70.8697 38.3505 71.7188 36.0243C71.9186 35.4766 72.0066 34.5546 72.0366 33.9633C72.2787 29.1478 72.2637 23.7846 72.16 18.9452C72.1164 16.9013 72.3796 12.9471 70.1257 11.9275C67.1563 10.584 63.7995 14.0062 62.4526 16.3543C62.3864 16.4696 61.9056 17.5744 61.8442 17.4925C62.8454 14.0055 65.6914 10.0882 69.4894 9.41095C76.3297 8.19087 75.7405 15.4759 75.7555 19.9798C75.7705 24.4836 75.7671 29.5529 76.0399 33.8767C76.3038 38.0546 80.6365 38.2632 84.0083 38.5326L84.0089 38.5313ZM53.0534 17.067C51.2939 17.2232 48.9274 18.0947 48.9069 20.2103C48.8892 22.0762 50.7271 22.5154 52.2425 22.2215C54.0511 21.8709 56.6529 20.2178 58.199 22.0646C59.1681 23.2226 58.1881 24.3766 57.3097 25.1861C55.4254 26.9224 50.8274 29.4451 50.5498 32.1083C50.0451 36.9463 58.5816 37.8425 60.0063 32.7132C60.3923 31.3233 60.4325 29.739 60.4857 28.3048C60.5717 25.9908 60.7408 23.3938 60.0977 21.1344C59.2097 18.0129 56.0787 16.799 53.0548 17.0677L53.0534 17.067ZM14.0579 38.3812L12.5875 37.955C11.2699 37.524 9.8609 37.0657 9.4517 35.5878C8.50578 32.1717 10.666 25.2096 6.01243 23.9298C5.87603 23.8923 5.73963 23.893 5.58687 23.8746C5.5705 23.8726 5.81738 31.504 5.65575 34.0349C5.51594 36.2173 4.57411 37.2212 2.52882 37.8234L0 38.3812H14.0572H14.0579ZM31.4657 27.9331C33.1529 25.9356 35.5228 25.3818 38.0087 26.2623C40.0663 26.9906 41.4582 28.8456 43.7708 27.3964C45.263 26.4614 45.3571 24.7087 44.9916 23.1415C44.1016 19.3223 40.0874 17.0158 36.2601 17.1822L37.3431 17.3568C38.0319 17.5185 38.7323 17.7497 39.3174 18.1466C41.1636 19.3994 42.9722 21.815 42.4853 23.6768C42.1961 24.783 41.0388 25.3129 39.9612 25.2018C38.452 25.0456 37.5333 24.3984 35.7854 24.5634C33.6651 24.7632 31.0715 27.0247 30.6821 29.1634C30.9508 28.6792 31.1492 28.3089 31.4657 27.9338V27.9331ZM5.30384 12.3394C5.73349 13.4715 5.64893 15.0005 5.64415 16.2615C5.63529 18.6908 5.58891 21.0525 5.57868 23.4825C5.57868 23.4825 6.28632 23.4891 6.57234 23.4286C8.92076 22.9318 9.1489 21.3055 9.14617 18.0525C9.14481 16.5923 9.23279 13.6134 8.71175 12.186C7.87835 9.90267 4.20038 10.2198 2.19601 10.4496C2.0221 10.4694 0.531271 10.7395 0.521041 10.8002C2.11485 10.7988 4.63822 10.5874 5.30384 12.3394Z" fill="url(#paint2_linear_3064_2497)"/>
</g>
<defs>
<filter id="filter0_f_3064_2497" x="-73.4672" y="-164.245" width="346.692" height="360.099" filterUnits="userSpaceOnUse" color-interpolation-filters="sRGB">
<feFlood flood-opacity="0" result="BackgroundImageFix"/>
<feBlend mode="normal" in="SourceGraphic" in2="BackgroundImageFix" result="shape"/>
<feGaussianBlur stdDeviation="82.8984" result="effect1_foregroundBlur_3064_2497"/>
</filter>
<filter id="filter1_f_3064_2497" x="26.0109" y="-66.0888" width="147.736" height="161.689" filterUnits="userSpaceOnUse" color-interpolation-filters="sRGB">
<feFlood flood-opacity="0" result="BackgroundImageFix"/>
<feBlend mode="normal" in="SourceGraphic" in2="BackgroundImageFix" result="shape"/>
<feGaussianBlur stdDeviation="33.1594" result="effect1_foregroundBlur_3064_2497"/>
</filter>
<filter id="filter2_f_3064_2497" x="59.1702" y="-29.281" width="81.4174" height="89.5885" filterUnits="userSpaceOnUse" color-interpolation-filters="sRGB">
<feFlood flood-opacity="0" result="BackgroundImageFix"/>
<feBlend mode="normal" in="SourceGraphic" in2="BackgroundImageFix" result="shape"/>
<feGaussianBlur stdDeviation="16.5797" result="effect1_foregroundBlur_3064_2497"/>
</filter>
<linearGradient id="paint0_linear_3064_2497" x1="99.8789" y1="5.23296" x2="99.8789" y2="24.7856" gradientUnits="userSpaceOnUse">
<stop stop-color="white"/>
<stop offset="0.842121" stop-color="#FEE59E"/>
</linearGradient>
<linearGradient id="paint1_linear_3064_2497" x1="83.2202" y1="-9.01768" x2="106.204" y2="42.9168" gradientUnits="userSpaceOnUse">
<stop stop-color="#FAD77A"/>
<stop offset="0.352167" stop-color="#F8A1A7"/>
<stop offset="0.71231" stop-color="#9584C8"/>
<stop offset="1" stop-color="#5C56A9"/>
</linearGradient>
<linearGradient id="paint2_linear_3064_2497" x1="68.7481" y1="-18.8335" x2="-3.78688" y2="74.3898" gradientUnits="userSpaceOnUse">
<stop stop-color="#F8A1A7"/>
<stop offset="0.511785" stop-color="#7C77C9"/>
<stop offset="0.804128" stop-color="#5C56A9"/>
</linearGradient>
<clipPath id="clip0_3064_2497">
<rect width="119.064" height="40" fill="white"/>
</clipPath>
</defs>
</svg>
