<svg width="120" height="40" viewBox="0 0 120 40" fill="none" xmlns="http://www.w3.org/2000/svg">
<path d="M99.9159 5.23377C100.111 7.0997 100.421 10.1046 101.162 11.9814C102.124 14.4181 107.398 14.3772 107.429 14.5259C105.6 14.7537 102.726 15.0053 101.595 16.6673C100.634 18.0804 100.175 23.0146 99.9779 24.7858C99.7174 23.4286 99.8299 18.371 98.0697 16.3789C96.5639 14.6746 92.8027 14.485 92.3301 14.4031C94.4272 14.2006 97.3195 14.0315 98.483 12.0394C99.5469 10.2178 99.8354 5.51135 99.9159 5.23309V5.23377Z" fill="url(#paint0_linear_6003_191)"/>
<path d="M90.2488 29.0237C90.3606 29.1445 90.3804 29.0121 90.3947 28.9112C90.9158 25.3724 87.3087 22.7262 87.7268 18.9576C87.9123 17.2846 89.7352 15.7174 91.4143 16.4458C92.3916 16.8693 91.8753 17.4388 91.8105 18.2074C91.4409 22.6042 95.4019 24.4251 97.2774 27.6836C99.2026 31.0288 99.4127 35.4992 99.9412 39.2365C100.073 39.0483 100.301 30.8863 101.9 28.0253C103.811 24.6044 107.906 22.7535 107.502 18.2817C107.437 17.5629 106.937 17.0432 107.824 16.5945C109.505 15.744 111.389 17.2587 111.586 18.9576C112.035 22.8422 108.626 25.2046 108.916 28.8376C108.922 28.9235 108.939 29.171 109.064 29.171C109.075 28.9971 109.125 28.8314 109.201 28.6752C111.53 23.8624 115.592 22.2618 113.286 16.0693C111.895 12.3361 108.339 8.9057 109.956 4.67464C110.475 3.31816 111.753 2.12399 113.306 2.5932C114.624 2.99148 113.964 3.84533 113.772 4.69646C113.044 7.91614 115.856 11.4045 117.286 14.1529C120.66 20.6387 119.035 29.0258 114.087 34.228C107.253 41.4135 94.544 41.8288 86.8347 35.8177C81.1497 31.3848 78.9803 23.3373 81.0064 16.4765C82.0813 12.8367 86.3048 8.58585 85.6037 4.78307C85.4435 3.91558 84.6803 2.94511 85.9134 2.49772C87.1723 2.04147 88.4715 2.83122 89.071 3.91899C91.4852 8.29737 87.1369 12.5414 85.7845 16.5685C83.9506 22.0286 87.9614 24.2478 90.1131 28.5259C90.182 28.663 90.2317 29.004 90.2495 29.0224L90.2488 29.0237ZM94.4689 7.92773C95.3849 5.23319 94.8529 2.3661 92.8165 0.845259C91.7553 0.0527866 89.9296 -0.524177 89.0587 0.735459C88.5274 1.50338 89.2422 1.69502 89.62 2.10762C92.9986 5.80265 89.9398 11.1079 87.9437 14.674C87.9982 14.7279 93.3334 11.2722 94.4696 7.92773H94.4689ZM109.945 11.974C108.422 9.1976 107.28 5.31298 109.481 2.56319C109.966 1.95759 110.867 1.64455 110.288 0.777742C109.673 -0.143627 108.098 -0.0242784 107.231 0.462663C104.423 2.04147 103.86 5.73377 104.712 8.07845C105.577 10.4531 108.313 12.6451 111.371 14.3766C111.31 14.2116 110.333 12.6798 109.945 11.9733V11.974Z" fill="url(#paint1_linear_6003_191)"/>
<path d="M84.0089 38.5314C83.9728 38.6276 82.1676 38.6126 81.4467 38.6016C76.1735 38.5212 70.8629 38.8253 65.6041 38.5962C64.3635 38.5423 62.9982 38.5982 61.8968 37.9217C60.6555 37.1592 60.2307 35.6855 60.2082 34.2935C59.8883 34.6345 59.6646 35.0573 59.3543 35.4099C56.8855 38.2211 51.4739 39.0627 48.2856 37.104C46.3494 35.9146 45.5685 33.8645 46.374 31.6917C43.6303 34.5554 41.3436 37.889 37.1051 38.4475C34.2182 38.8281 29.8473 38.7353 26.925 38.4564C22.1811 38.0035 18.6668 36.9785 17.5503 31.8424C16.9618 29.1349 17.5735 25.5129 14.2441 24.5902C12.9824 24.241 11.5311 24.151 10.2271 24.1073C10.4638 23.9723 14.909 23.7179 17.2919 22.137C19.8091 20.4668 20.1937 17.5663 19.1653 14.8384C17.8872 11.4496 14.24 10.9122 10.8621 10.9456C10.474 10.9497 10.1889 10.9708 9.81111 11.0179C9.6638 11.0363 10.5217 10.8187 10.8307 10.7539L11.9287 10.5323C12.4988 10.4729 12.8971 10.4041 13.2749 10.3972C17.1343 10.3277 21.525 10.8344 22.758 15.1875C23.6828 18.4516 22.4504 21.659 19.4504 23.2548L17.5156 24.1073C18.9737 24.5029 20.2244 25.9003 20.6595 27.3215C21.4943 30.0433 20.963 33.4751 22.8712 35.8157C24.7412 38.1092 28.6409 38.1618 31.3484 38.0104C31.5918 37.7846 30.4768 37.1954 30.3581 37.1183C25.1259 33.707 23.6808 27.2608 26.5929 22.5401C27.9827 20.2875 31.2392 17.728 34.2489 17.417C31.182 18.7025 29.4599 21.9427 28.8605 25.073C27.8307 30.4505 30.3868 36.8169 36.5185 37.1926C41.8728 37.5207 44.3341 32.4044 47.7468 29.3852C50.1229 27.2833 53.303 26.158 56.0173 24.5676C56.5063 24.2812 57.5968 23.6599 57.8069 23.16C58.1363 22.3757 57.2824 21.8158 56.5916 21.7381C53.674 21.41 50.8465 25.8627 47.8 23.6674C45.6347 22.107 46.9564 18.888 48.9274 17.6604C53.2628 14.9598 62.4928 16.1253 63.9789 21.8629C64.8975 25.4085 64.1705 30.5542 64.4433 34.3344C64.4931 35.0273 64.7072 35.9323 65.0851 36.5182C66.3788 38.5266 70.8697 38.3507 71.7188 36.0244C71.9186 35.4768 72.0066 34.5547 72.0366 33.9634C72.2787 29.1479 72.2637 23.7847 72.16 18.9453C72.1164 16.9014 72.3796 12.9472 70.1257 11.9276C67.1563 10.5841 63.7995 14.0063 62.4526 16.3544C62.3864 16.4697 61.9056 17.5745 61.8443 17.4927C62.8454 14.0057 65.6914 10.0883 69.4894 9.41109C76.3297 8.19101 75.7405 15.476 75.7555 19.9799C75.7705 24.4838 75.7671 29.553 76.0399 33.8768C76.3038 38.0547 80.6365 38.2634 84.0083 38.5328L84.0089 38.5314ZM53.0534 17.0671C51.2939 17.2233 48.9274 18.0949 48.9069 20.2104C48.8892 22.0763 50.7271 22.5155 52.2425 22.2216C54.0511 21.8711 56.6529 20.2179 58.199 22.0647C59.1681 23.2228 58.1881 24.3767 57.3097 25.1862C55.4254 26.9226 50.8274 29.4452 50.5498 32.1084C50.0451 36.9465 58.5816 37.8426 60.0063 32.7133C60.3923 31.3234 60.4325 29.7392 60.4857 28.305C60.5717 25.991 60.7408 23.3939 60.0977 21.1345C59.2097 18.013 56.0787 16.7991 53.0548 17.0678L53.0534 17.0671ZM14.0579 38.3814L12.5875 37.9551C11.2699 37.5241 9.8609 37.0658 9.4517 35.5879C8.50578 32.1718 10.666 25.2097 6.01243 23.93C5.87603 23.8925 5.73963 23.8932 5.58687 23.8747C5.5705 23.8727 5.81738 31.5042 5.65575 34.035C5.51594 36.2174 4.57411 37.2213 2.52882 37.8235L0 38.3814H14.0572H14.0579ZM31.4657 27.9333C33.1529 25.9357 35.5228 25.3819 38.0087 26.2624C40.0663 26.9908 41.4582 28.8458 43.7708 27.3965C45.263 26.4615 45.3571 24.7088 44.9916 23.1416C44.1016 19.3225 40.0874 17.016 36.2601 17.1824L37.3431 17.357C38.0319 17.5186 38.7323 17.7498 39.3174 18.1467C41.1636 19.3995 42.9722 21.8151 42.4853 23.677C42.1961 24.7832 41.0388 25.3131 39.9612 25.2019C38.452 25.0457 37.5333 24.3985 35.7854 24.5636C33.6651 24.7634 31.0715 27.0249 30.6821 29.1636C30.9508 28.6794 31.1492 28.309 31.4657 27.9339V27.9333ZM5.30384 12.3396C5.73349 13.4717 5.64893 15.0007 5.64415 16.2617C5.63529 18.6909 5.58891 21.0527 5.57868 23.4826C5.57868 23.4826 6.28632 23.4892 6.57234 23.4287C8.92076 22.9319 9.1489 21.3057 9.14617 18.0526C9.14481 16.5925 9.23279 13.6135 8.71175 12.1861C7.87835 9.90281 4.20038 10.2199 2.19601 10.4498C2.0221 10.4695 0.531271 10.7396 0.521041 10.8003C2.11485 10.7989 4.63822 10.5875 5.30384 12.3396Z" fill="url(#paint2_linear_6003_191)"/>
<defs>
<linearGradient id="paint0_linear_6003_191" x1="99.8794" y1="5.23309" x2="99.8794" y2="24.7858" gradientUnits="userSpaceOnUse">
<stop stop-color="white"/>
<stop offset="0.842121" stop-color="#FEE59E"/>
</linearGradient>
<linearGradient id="paint1_linear_6003_191" x1="83.2207" y1="-9.01754" x2="106.205" y2="42.917" gradientUnits="userSpaceOnUse">
<stop stop-color="#FAD77A"/>
<stop offset="0.352167" stop-color="#F8A1A7"/>
<stop offset="0.71231" stop-color="#9584C8"/>
<stop offset="1" stop-color="#5C56A9"/>
</linearGradient>
<linearGradient id="paint2_linear_6003_191" x1="68.7481" y1="-18.8334" x2="-3.78688" y2="74.39" gradientUnits="userSpaceOnUse">
<stop stop-color="#F8A1A7"/>
<stop offset="0.511785" stop-color="#7C77C9"/>
<stop offset="0.804128" stop-color="#5C56A9"/>
</linearGradient>
</defs>
</svg>
