<svg width="1280" height="832" viewBox="0 0 1280 832" fill="none" xmlns="http://www.w3.org/2000/svg">
<g filter="url(#filter0_f_652_689)">
<path d="M945.024 443.803C861.445 529.086 599.277 739.169 557.855 743.045C506.078 747.891 265.384 701.552 321.712 537.849C533.915 -78.873 600.275 -114.163 822.58 -336.881C828.97 -344.511 833.553 -350.624 836.722 -355.467C861.159 -392.826 801.388 -354.708 836.722 -355.467C844.276 -355.63 856.179 -357.569 874.182 -362.404C1015.58 -400.376 1349.82 -624.881 1327.22 -647.574C1312.24 -662.614 1673.06 -808.52 1934.7 -941.286L1611.4 -1126.06L2183.08 -1362.86C2089.69 -1296.09 2267.46 -1273.55 2194.49 -1114.78C2175.29 -1073 2067.84 -1008.84 1934.7 -941.286L2040.35 -880.903L2165.07 -550.631L1370.53 108.41L945.024 443.803Z" fill="#292656"/>
</g>
<g filter="url(#filter1_f_652_689)">
<path d="M539.884 524.47C571.244 526.158 1125.17 210.832 1126.03 221.695L1454.23 53.7504L1984.13 -424.55L1847.82 -728.298L1922.49 -1190.84L1809.81 -1055.83C1746.22 -1008.95 1637.44 -897.948 1614.31 -842.585C1585.4 -773.381 1430.74 -555.65 1469.42 -549.708C1508.1 -543.766 1297.9 -403.98 1170.91 -354.133C919.189 -255.332 746.326 -92.913 723.548 -56.6995C590.366 75.7717 572.772 101.951 662.415 94.2516C725.121 88.866 500.685 522.36 539.884 524.47Z" fill="#343072"/>
</g>
<g filter="url(#filter2_f_652_689)">
<path d="M821.785 97.049C457.24 450.607 1039.92 267.972 1064.79 275.832L1612.34 -158.742L1845.39 -437.529L1761.19 -642.026L1887.14 -1061.36L1768.57 -967.439C1717.94 -930.791 1342.65 -775.022 1409.86 -666.871C1427.23 -638.92 1329.01 -537.662 1359.18 -536.848C1460.13 -534.124 1329.96 -346.305 1255.3 -342.487C1095.06 -334.29 1091.89 -464.403 1073.52 -439.011C943.759 -318.577 890.225 -152.216 1027.93 -220.074C1087.8 -249.581 1010.26 -85.7474 821.785 97.049Z" fill="#055786"/>
</g>
<g filter="url(#filter3_f_652_689)">
<path d="M1384.39 -23.8978C1394.37 -22.5893 1462.78 28.3468 1441 28.9995C1411.66 29.8789 1114.61 144.739 1063 157.5C971.154 180.21 1020.98 -63.2109 1159 -189.5C1209.41 -249.883 1257.09 -318.588 1327.29 -347.689C1429.41 -390.03 1960.87 -749.211 1846.34 -774.389C1821.31 -779.89 1698.49 -784.266 1724.39 -834.463C1745.11 -874.621 1559.35 -766.407 1609.98 -803.055L1728.55 -896.976L1982.9 -731.87L2067.1 -527.373L1640 -160.591L1384.39 -23.8978Z" fill="#106DA3"/>
</g>
<g filter="url(#filter4_f_652_689)">
<path d="M1509.79 -43.5355C1516.45 -39.1668 1694.49 204.86 1521.21 63.6967C1503.47 49.2396 1226.05 75.9629 1184.21 80.6966C1117.43 88.2534 1220.99 -140.702 1300.71 -214.303C1320.38 -237.735 1140.1 -292.572 1417.74 -392.542C1492.74 -419.55 2054.88 -603.946 2175.32 -689.05L2197.6 -717.687C2196.71 -720.42 2194.32 -722.799 2190.3 -724.789C2170.01 -734.849 1990.34 -649.881 2000.36 -691.77C2008.39 -725.282 2345.92 -1061.89 2377.59 -1086.24L2501.18 -1172L2310.23 -862.487L2197.6 -717.687C2199.97 -710.424 2191.76 -700.661 2175.32 -689.05L1935.67 -380.944L1679.8 -121.556L1509.79 -43.5355Z" fill="#4095C0"/>
</g>
<defs>
<filter id="filter0_f_652_689" x="-301.622" y="-1977.71" width="3129.04" height="3335.94" filterUnits="userSpaceOnUse" color-interpolation-filters="sRGB">
<feFlood flood-opacity="0" result="BackgroundImageFix"/>
<feBlend mode="normal" in="SourceGraphic" in2="BackgroundImageFix" result="shape"/>
<feGaussianBlur stdDeviation="307.425" result="effect1_foregroundBlur_652_689"/>
</filter>
<filter id="filter1_f_652_689" x="74.1176" y="-1651.98" width="2371.15" height="2637.59" filterUnits="userSpaceOnUse" color-interpolation-filters="sRGB">
<feFlood flood-opacity="0" result="BackgroundImageFix"/>
<feBlend mode="normal" in="SourceGraphic" in2="BackgroundImageFix" result="shape"/>
<feGaussianBlur stdDeviation="230.569" result="effect1_foregroundBlur_652_689"/>
</filter>
<filter id="filter2_f_652_689" x="319.766" y="-1443.77" width="1949.78" height="2142.25" filterUnits="userSpaceOnUse" color-interpolation-filters="sRGB">
<feFlood flood-opacity="0" result="BackgroundImageFix"/>
<feBlend mode="normal" in="SourceGraphic" in2="BackgroundImageFix" result="shape"/>
<feGaussianBlur stdDeviation="191.203" result="effect1_foregroundBlur_652_689"/>
</filter>
<filter id="filter3_f_652_689" x="633.923" y="-1279.38" width="1815.58" height="1820.77" filterUnits="userSpaceOnUse" color-interpolation-filters="sRGB">
<feFlood flood-opacity="0" result="BackgroundImageFix"/>
<feBlend mode="normal" in="SourceGraphic" in2="BackgroundImageFix" result="shape"/>
<feGaussianBlur stdDeviation="191.203" result="effect1_foregroundBlur_652_689"/>
</filter>
<filter id="filter4_f_652_689" x="762.793" y="-1572" width="2138.38" height="2079.6" filterUnits="userSpaceOnUse" color-interpolation-filters="sRGB">
<feFlood flood-opacity="0" result="BackgroundImageFix"/>
<feBlend mode="normal" in="SourceGraphic" in2="BackgroundImageFix" result="shape"/>
<feGaussianBlur stdDeviation="200" result="effect1_foregroundBlur_652_689"/>
</filter>
</defs>
</svg>
