<svg width="1280" height="832" viewBox="0 0 1280 832" fill="none" xmlns="http://www.w3.org/2000/svg">
<g filter="url(#filter0_f_4081_516)">
<path d="M945.024 443.803C861.445 529.086 599.277 739.169 557.855 743.045C506.078 747.891 265.384 701.552 321.712 537.849C533.915 -78.873 600.275 -114.163 822.58 -336.881C828.97 -344.511 833.553 -350.624 836.722 -355.467C861.159 -392.826 801.388 -354.708 836.722 -355.467C844.276 -355.63 856.179 -357.569 874.181 -362.404C1015.58 -400.376 1349.82 -624.881 1327.22 -647.574C1312.24 -662.614 1673.06 -808.52 1934.7 -941.286L1611.4 -1126.06L2183.08 -1362.86C2089.69 -1296.09 2267.46 -1273.55 2194.49 -1114.78C2175.29 -1073 2067.84 -1008.84 1934.7 -941.286L2040.35 -880.903L2165.07 -550.631L1370.53 108.41L945.024 443.803Z" fill="#292656"/>
</g>
<g filter="url(#filter1_f_4081_516)">
<path d="M539.885 524.47C571.244 526.159 1125.17 210.832 1126.03 221.695L1454.23 53.7506L1984.13 -424.549L1847.82 -728.298L1922.49 -1190.84L1809.81 -1055.83C1746.22 -1008.95 1637.44 -897.948 1614.31 -842.585C1585.4 -773.381 1430.74 -555.649 1469.42 -549.708C1508.1 -543.766 1297.9 -403.98 1170.91 -354.133C919.189 -255.332 746.327 -92.9127 723.548 -56.6993C590.366 75.772 572.772 101.951 662.415 94.2518C725.121 88.8663 500.686 522.36 539.885 524.47Z" fill="#343072"/>
</g>
<g filter="url(#filter2_f_4081_516)">
<path d="M821.784 97.0493C457.239 450.607 1039.92 267.972 1064.79 275.832L1612.34 -158.742L1845.39 -437.529L1761.19 -642.025L1887.14 -1061.36L1768.57 -967.439C1717.94 -930.791 1342.65 -775.022 1409.86 -666.871C1427.23 -638.92 1329.01 -537.661 1359.18 -536.847C1460.13 -534.124 1329.96 -346.305 1255.3 -342.487C1095.06 -334.29 1091.89 -464.402 1073.52 -439.011C943.759 -318.577 890.224 -152.216 1027.93 -220.073C1087.8 -249.58 1010.26 -85.7471 821.784 97.0493Z" fill="#524D9B"/>
</g>
<g filter="url(#filter3_f_4081_516)">
<path d="M1277.3 -99.4632C1300.77 -100.167 1383.2 -30.8107 1383.19 -23.2561L1640 -160.591L2067.1 -527.373L1982.9 -731.869L1728.55 -896.975L1609.98 -803.055C1559.35 -766.407 1745.11 -874.62 1724.39 -834.463C1698.49 -784.266 1821.31 -779.889 1846.34 -774.388C1960.87 -749.211 1429.41 -390.03 1327.29 -347.689C1257.09 -318.588 932.102 -182.312 881.694 -121.929C743.674 4.36052 949.224 -64.6694 1041.07 -87.3802C1092.68 -100.141 1247.96 -98.5839 1277.3 -99.4632Z" fill="#6862B2"/>
</g>
<g filter="url(#filter4_f_4081_516)">
<path d="M1443.89 -21.1489C1442.41 -28.2176 1326.14 -68.9398 1308.26 -72.8889C1285.91 -77.8252 1206.06 -138.833 1164.22 -134.099C1097.44 -126.542 897.774 -93.2355 977.494 -166.836C997.157 -190.269 1074.39 -270.269 1352.03 -370.239C1427.03 -397.246 1989.17 -581.643 2109.61 -666.747L2131.89 -695.383C2130.99 -698.117 2128.6 -700.496 2124.59 -702.486C2104.3 -712.546 1924.62 -627.578 1934.65 -669.467C1942.67 -702.979 2280.2 -1039.58 2311.87 -1063.94L2435.46 -1149.7L2244.51 -840.184L2131.89 -695.383C2134.25 -688.121 2126.04 -678.358 2109.61 -666.747L1869.96 -358.641L1614.08 -99.2524L1443.89 -21.1489Z" fill="#E47F87"/>
</g>
<g filter="url(#filter5_f_4081_516)">
<path d="M1555.17 -205.992C1573.05 -202.043 1660.46 -118.717 1661.94 -111.649L1832.13 -189.752L2088 -449.14L1983.23 -657.029L1755.56 -861.458L1682.97 -796.845C1651.3 -772.488 1593.42 -681.995 1585.4 -648.484C1575.37 -606.594 1684.38 -566.382 1704.67 -556.322C1797.53 -510.28 1627.71 -434.229 1534.68 -393.265C1481.19 -369.709 1357.87 -319.028 1343.06 -311.732C1229.85 -243.738 1250.48 -144.59 1300.45 -141.361C1335.4 -139.102 1532.82 -210.928 1555.17 -205.992Z" fill="#E0B850"/>
</g>
<defs>
<filter id="filter0_f_4081_516" x="-301.622" y="-1977.71" width="3129.04" height="3335.94" filterUnits="userSpaceOnUse" color-interpolation-filters="sRGB">
<feFlood flood-opacity="0" result="BackgroundImageFix"/>
<feBlend mode="normal" in="SourceGraphic" in2="BackgroundImageFix" result="shape"/>
<feGaussianBlur stdDeviation="307.425" result="effect1_foregroundBlur_4081_516"/>
</filter>
<filter id="filter1_f_4081_516" x="74.1181" y="-1651.98" width="2371.15" height="2637.59" filterUnits="userSpaceOnUse" color-interpolation-filters="sRGB">
<feFlood flood-opacity="0" result="BackgroundImageFix"/>
<feBlend mode="normal" in="SourceGraphic" in2="BackgroundImageFix" result="shape"/>
<feGaussianBlur stdDeviation="230.569" result="effect1_foregroundBlur_4081_516"/>
</filter>
<filter id="filter2_f_4081_516" x="319.766" y="-1443.77" width="1949.78" height="2142.25" filterUnits="userSpaceOnUse" color-interpolation-filters="sRGB">
<feFlood flood-opacity="0" result="BackgroundImageFix"/>
<feBlend mode="normal" in="SourceGraphic" in2="BackgroundImageFix" result="shape"/>
<feGaussianBlur stdDeviation="191.203" result="effect1_foregroundBlur_4081_516"/>
</filter>
<filter id="filter3_f_4081_516" x="452.96" y="-1279.38" width="1996.55" height="1638.53" filterUnits="userSpaceOnUse" color-interpolation-filters="sRGB">
<feFlood flood-opacity="0" result="BackgroundImageFix"/>
<feBlend mode="normal" in="SourceGraphic" in2="BackgroundImageFix" result="shape"/>
<feGaussianBlur stdDeviation="191.203" result="effect1_foregroundBlur_4081_516"/>
</filter>
<filter id="filter4_f_4081_516" x="576.588" y="-1532.1" width="2241.28" height="1893.36" filterUnits="userSpaceOnUse" color-interpolation-filters="sRGB">
<feFlood flood-opacity="0" result="BackgroundImageFix"/>
<feBlend mode="normal" in="SourceGraphic" in2="BackgroundImageFix" result="shape"/>
<feGaussianBlur stdDeviation="191.203" result="effect1_foregroundBlur_4081_516"/>
</filter>
<filter id="filter5_f_4081_516" x="1005.34" y="-1116.4" width="1337.6" height="1259.68" filterUnits="userSpaceOnUse" color-interpolation-filters="sRGB">
<feFlood flood-opacity="0" result="BackgroundImageFix"/>
<feBlend mode="normal" in="SourceGraphic" in2="BackgroundImageFix" result="shape"/>
<feGaussianBlur stdDeviation="127.469" result="effect1_foregroundBlur_4081_516"/>
</filter>
</defs>
</svg>
