<svg width="366" height="356" viewBox="0 0 366 356" fill="none" xmlns="http://www.w3.org/2000/svg">
<g opacity="0.9" filter="url(#filter0_f_652_7110)">
<g clip-path="url(#clip0_652_7110)">
<rect x="43.5801" y="111.072" width="115.487" height="50.0784" rx="25.0392" transform="rotate(14 43.5801 111.072)" fill="#8A77AF" fill-opacity="0.3"/>
<path opacity="0.8" d="M86.36 153.722L89.5672 140.859L94.2025 142.015C95.4802 142.333 96.5078 142.858 97.2851 143.588C98.0625 144.319 98.5703 145.218 98.8087 146.288C99.053 147.359 99.007 148.569 98.6706 149.918L98.6662 149.935C98.3269 151.296 97.7965 152.398 97.0751 153.241C96.3596 154.085 95.4865 154.65 94.4558 154.936C93.4325 155.217 92.279 155.198 90.9954 154.878L86.36 153.722ZM88.788 152.491L91.2126 153.095C92.11 153.319 92.9196 153.325 93.6414 153.114C94.3632 152.902 94.9779 152.488 95.4855 151.869C95.9932 151.251 96.3707 150.446 96.6182 149.453L96.6226 149.435C96.8686 148.449 96.9096 147.563 96.7457 146.777C96.5877 145.993 96.2368 145.337 95.6927 144.81C95.1547 144.285 94.4429 143.912 93.5574 143.691L91.1328 143.086L88.788 152.491ZM99.2285 156.931L101.638 147.268L103.572 147.75L101.163 157.413L99.2285 156.931ZM103.034 145.807C102.707 145.726 102.454 145.54 102.274 145.249C102.095 144.952 102.047 144.64 102.128 144.313C102.211 143.98 102.401 143.727 102.696 143.555C102.993 143.376 103.305 143.328 103.632 143.409C103.965 143.492 104.22 143.682 104.399 143.979C104.579 144.27 104.627 144.582 104.544 144.915C104.463 145.242 104.273 145.495 103.976 145.673C103.681 145.846 103.367 145.89 103.034 145.807ZM106.254 158.853C105.642 158.7 105.124 158.448 104.7 158.096C104.278 157.738 103.981 157.311 103.808 156.813C103.643 156.311 103.634 155.766 103.78 155.178L103.785 155.16C103.929 154.584 104.191 154.125 104.573 153.785C104.954 153.444 105.441 153.225 106.034 153.126C106.634 153.024 107.323 153.047 108.1 153.196L111.728 153.874L111.388 155.238L108.018 154.625C107.35 154.496 106.827 154.514 106.452 154.679C106.083 154.84 105.846 155.134 105.739 155.562L105.735 155.58C105.624 156.026 105.703 156.415 105.974 156.747C106.251 157.081 106.647 157.313 107.164 157.442C107.646 157.562 108.097 157.573 108.519 157.477C108.942 157.374 109.302 157.186 109.597 156.912C109.894 156.633 110.094 156.285 110.198 155.869L110.952 152.847C111.083 152.318 111.019 151.87 110.757 151.501C110.501 151.135 110.049 150.87 109.402 150.709C108.867 150.576 108.403 150.564 108.009 150.674C107.623 150.78 107.33 150.991 107.131 151.308L107.114 151.341L105.251 150.876L105.277 150.807C105.48 150.296 105.804 149.885 106.248 149.572C106.692 149.26 107.224 149.064 107.843 148.985C108.47 148.902 109.152 148.952 109.889 149.136C110.697 149.337 111.351 149.639 111.85 150.041C112.357 150.439 112.696 150.915 112.867 151.469C113.044 152.024 113.048 152.641 112.879 153.318L111.232 159.924L109.307 159.444L109.651 158.062L109.518 158.028C109.246 158.308 108.939 158.528 108.596 158.689C108.253 158.849 107.885 158.944 107.493 158.972C107.101 159.001 106.688 158.961 106.254 158.853ZM113.609 160.516L116.018 150.853L117.952 151.335L117.584 152.815L117.726 152.851C118.027 152.377 118.428 152.05 118.927 151.872C119.433 151.689 120.004 151.677 120.64 151.835C120.795 151.874 120.944 151.92 121.088 151.975C121.238 152.032 121.358 152.08 121.449 152.122L121.002 153.914C120.851 153.838 120.691 153.77 120.523 153.709C120.363 153.644 120.19 153.588 120.006 153.542C119.519 153.421 119.067 153.409 118.651 153.507C118.235 153.606 117.881 153.801 117.587 154.094C117.3 154.383 117.098 154.761 116.981 155.231L115.543 160.998L113.609 160.516ZM120.812 165.901C120.688 165.87 120.555 165.83 120.416 165.783C120.275 165.741 120.143 165.699 120.021 165.656L120.401 164.132C120.493 164.167 120.595 164.202 120.707 164.236C120.824 164.272 120.939 164.304 121.052 164.332C121.498 164.443 121.886 164.429 122.217 164.291C122.547 164.159 122.844 163.867 123.108 163.415L123.373 162.96L122.281 152.415L124.376 152.937L124.932 162.288L124.58 161.197L125.302 161.377L124.496 162.179L129.359 154.179L131.4 154.688L125.305 163.83C124.848 164.524 124.399 165.049 123.956 165.406C123.514 165.763 123.041 165.974 122.539 166.038C122.042 166.109 121.466 166.064 120.812 165.901Z" fill="white"/>
<g opacity="0.8">
<path d="M59.9751 148.137L54.9044 148.601L55.9841 143.625M59.9751 148.137L69.8156 139.432L70.0198 139.251C71.2657 138.149 71.3823 136.246 70.2802 135C69.1781 133.754 67.2747 133.638 66.0288 134.74L65.8246 134.92L55.9841 143.625M59.9751 148.137L55.9841 143.625" stroke="white" stroke-width="1.50591" stroke-linejoin="round"/>
</g>
</g>
</g>
<g opacity="0.9" filter="url(#filter1_d_652_7110)">
<g clip-path="url(#clip1_652_7110)">
<rect x="43.5801" y="111.073" width="115.487" height="50.0784" rx="25.0392" transform="rotate(14 43.5801 111.073)" fill="#8A77AF" fill-opacity="0.3" shape-rendering="crispEdges"/>
<path opacity="0.8" d="M81.2453 152.658L84.4524 139.795L89.0878 140.951C90.3655 141.269 91.393 141.794 92.1704 142.524C92.9477 143.255 93.4556 144.154 93.694 145.224C93.9382 146.295 93.8922 147.505 93.5559 148.854L93.5514 148.871C93.2121 150.232 92.6818 151.334 91.9604 152.177C91.2449 153.021 90.3718 153.586 89.3411 153.872C88.3178 154.153 87.1643 154.134 85.8806 153.814L81.2453 152.658ZM83.6732 151.427L86.0979 152.031C86.9952 152.255 87.8048 152.261 88.5266 152.05C89.2484 151.838 89.8631 151.424 90.3708 150.805C90.8784 150.187 91.256 149.382 91.5034 148.389L91.5079 148.371C91.7538 147.385 91.7948 146.499 91.6309 145.713C91.473 144.929 91.122 144.273 90.578 143.746C90.0399 143.221 89.3282 142.848 88.4427 142.627L86.018 142.022L83.6732 151.427ZM94.1138 155.867L96.523 146.204L98.4574 146.686L96.0481 156.349L94.1138 155.867ZM97.9192 144.743C97.5923 144.662 97.3389 144.476 97.159 144.185C96.9806 143.888 96.9321 143.576 97.0136 143.249C97.0966 142.916 97.2858 142.663 97.5813 142.491C97.8783 142.312 98.1902 142.264 98.517 142.345C98.8498 142.428 99.1055 142.618 99.2839 142.915C99.4638 143.206 99.5123 143.518 99.4293 143.851C99.3478 144.178 99.1586 144.431 98.8616 144.609C98.5661 144.782 98.252 144.826 97.9192 144.743ZM101.139 157.789C100.527 157.636 100.009 157.384 99.5856 157.032C99.1635 156.674 98.8661 156.247 98.6935 155.749C98.5283 155.247 98.519 154.702 98.6657 154.114L98.6702 154.096C98.8139 153.52 99.0765 153.061 99.4581 152.721C99.8396 152.38 100.327 152.161 100.919 152.062C101.519 151.96 102.208 151.983 102.985 152.132L106.613 152.81L106.273 154.174L102.903 153.561C102.235 153.432 101.713 153.45 101.337 153.615C100.969 153.776 100.731 154.07 100.625 154.498L100.62 154.516C100.509 154.962 100.589 155.351 100.859 155.683C101.136 156.017 101.533 156.249 102.05 156.378C102.531 156.498 102.983 156.509 103.404 156.413C103.828 156.31 104.187 156.122 104.482 155.848C104.779 155.569 104.98 155.221 105.083 154.805L105.837 151.783C105.969 151.254 105.904 150.806 105.642 150.437C105.386 150.071 104.935 149.806 104.287 149.645C103.752 149.512 103.288 149.5 102.894 149.61C102.508 149.716 102.216 149.927 102.017 150.244L101.999 150.277L100.136 149.812L100.163 149.743C100.366 149.232 100.689 148.821 101.133 148.508C101.577 148.196 102.109 148 102.728 147.921C103.355 147.838 104.037 147.888 104.774 148.072C105.582 148.273 106.236 148.575 106.735 148.977C107.242 149.375 107.581 149.851 107.752 150.405C107.929 150.96 107.933 151.577 107.765 152.254L106.118 158.86L104.192 158.38L104.537 156.998L104.403 156.965C104.131 157.244 103.824 157.464 103.481 157.625C103.138 157.785 102.77 157.88 102.378 157.908C101.986 157.937 101.573 157.897 101.139 157.789ZM108.494 159.452L110.903 149.789L112.838 150.271L112.469 151.751L112.611 151.787C112.913 151.313 113.313 150.986 113.812 150.808C114.318 150.625 114.889 150.613 115.525 150.771C115.68 150.81 115.829 150.856 115.973 150.911C116.123 150.968 116.244 151.017 116.334 151.058L115.888 152.85C115.736 152.774 115.576 152.706 115.408 152.645C115.248 152.58 115.076 152.524 114.891 152.478C114.404 152.357 113.952 152.345 113.537 152.444C113.121 152.542 112.766 152.737 112.472 153.03C112.185 153.319 111.984 153.697 111.866 154.167L110.428 159.934L108.494 159.452ZM115.698 164.837C115.573 164.806 115.441 164.766 115.301 164.719C115.16 164.677 115.028 164.635 114.907 164.592L115.287 163.068C115.379 163.103 115.48 163.138 115.592 163.172C115.709 163.208 115.824 163.24 115.937 163.268C116.383 163.379 116.771 163.365 117.103 163.227C117.432 163.095 117.729 162.803 117.993 162.351L118.258 161.896L117.166 151.351L119.261 151.873L119.818 161.224L119.465 160.133L120.187 160.313L119.381 161.116L124.244 153.115L126.286 153.624L120.191 162.766C119.734 163.46 119.284 163.986 118.841 164.342C118.399 164.699 117.927 164.91 117.425 164.974C116.927 165.045 116.351 165 115.698 164.837Z" fill="white"/>
<g opacity="0.8">
<path d="M59.9751 148.137L54.9044 148.602L55.9841 143.625M59.9751 148.137L69.8156 139.433L70.0198 139.252C71.2657 138.15 71.3823 136.246 70.2802 135.001C69.1781 133.755 67.2747 133.638 66.0288 134.74L65.8246 134.921L55.9841 143.625M59.9751 148.137L55.9841 143.625" stroke="white" stroke-width="1.50591" stroke-linejoin="round"/>
</g>
</g>
</g>
<foreignObject x="0.000236511" y="0.000236511" width="365.306" height="355.073"><div xmlns="http://www.w3.org/1999/xhtml" style="backdrop-filter:blur(2.21px);clip-path:url(#bgblur_2_652_7110_clip_path);height:100%;width:100%"></div></foreignObject><g filter="url(#filter2_f_652_7110)" data-figma-bg-blur-radius="4.42554">
<ellipse cx="182.653" cy="177.537" rx="87.5492" ry="82.387" transform="rotate(-3.79437 182.653 177.537)" fill="url(#paint0_linear_652_7110)" fill-opacity="0.1"/>
</g>
<defs>
<filter id="filter0_f_652_7110" x="1.46484" y="81.0723" width="184.172" height="136.53" filterUnits="userSpaceOnUse" color-interpolation-filters="sRGB">
<feFlood flood-opacity="0" result="BackgroundImageFix"/>
<feBlend mode="normal" in="SourceGraphic" in2="BackgroundImageFix" result="shape"/>
<feGaussianBlur stdDeviation="15" result="effect1_foregroundBlur_652_7110"/>
</filter>
<filter id="filter1_d_652_7110" x="16.4127" y="101.038" width="154.276" height="106.634" filterUnits="userSpaceOnUse" color-interpolation-filters="sRGB">
<feFlood flood-opacity="0" result="BackgroundImageFix"/>
<feColorMatrix in="SourceAlpha" type="matrix" values="0 0 0 0 0 0 0 0 0 0 0 0 0 0 0 0 0 0 127 0" result="hardAlpha"/>
<feOffset dy="5.01738"/>
<feGaussianBlur stdDeviation="7.52606"/>
<feComposite in2="hardAlpha" operator="out"/>
<feColorMatrix type="matrix" values="0 0 0 0 0.47451 0 0 0 0 0.482353 0 0 0 0 0.545098 0 0 0 0.12 0"/>
<feBlend mode="normal" in2="BackgroundImageFix" result="effect1_dropShadow_652_7110"/>
<feBlend mode="normal" in="SourceGraphic" in2="effect1_dropShadow_652_7110" result="shape"/>
</filter>
<filter id="filter2_f_652_7110" x="0.000236511" y="0.000236511" width="365.306" height="355.073" filterUnits="userSpaceOnUse" color-interpolation-filters="sRGB">
<feFlood flood-opacity="0" result="BackgroundImageFix"/>
<feBlend mode="normal" in="SourceGraphic" in2="BackgroundImageFix" result="shape"/>
<feGaussianBlur stdDeviation="47.5614" result="effect1_foregroundBlur_652_7110"/>
</filter>
<clipPath id="bgblur_2_652_7110_clip_path" transform="translate(-0.000236511 -0.000236511)"><ellipse cx="182.653" cy="177.537" rx="87.5492" ry="82.387" transform="rotate(-3.79437 182.653 177.537)"/>
</clipPath><linearGradient id="paint0_linear_652_7110" x1="182.653" y1="95.1498" x2="182.653" y2="259.924" gradientUnits="userSpaceOnUse">
<stop stop-color="#262545"/>
<stop offset="1" stop-color="#1A1C2C"/>
</linearGradient>
<clipPath id="clip0_652_7110">
<rect x="43.5801" y="111.072" width="115.487" height="50.0784" rx="25.0392" transform="rotate(14 43.5801 111.072)" fill="white"/>
</clipPath>
<clipPath id="clip1_652_7110">
<rect x="43.5801" y="111.073" width="115.487" height="50.0784" rx="25.0392" transform="rotate(14 43.5801 111.073)" fill="white"/>
</clipPath>
</defs>
</svg>
